<svg width="301" height="319" viewBox="0 0 301 319" fill="none" xmlns="http://www.w3.org/2000/svg">
<path fill-rule="evenodd" clip-rule="evenodd" d="M0 0H12.6357V64.1892C12.6357 107.656 12.6862 129.069 12.821 130.535C12.9052 131.714 13.1748 133.887 13.3938 135.37C13.6297 136.853 14.1182 139.312 14.4889 140.846C14.8764 142.379 15.5334 144.653 15.9546 145.9C16.3758 147.147 17.1677 149.236 17.7236 150.533C18.2796 151.83 19.2399 153.886 19.8633 155.082C20.4866 156.278 21.6154 158.266 22.3567 159.462C23.1148 160.658 24.3953 162.562 25.2208 163.674C26.0463 164.786 27.4278 166.538 28.3039 167.549C29.18 168.56 30.831 170.346 31.9935 171.491C33.156 172.637 34.9081 174.237 35.8516 175.029C36.8119 175.821 38.564 177.186 39.7265 178.028C40.9059 178.887 43.0118 180.269 44.3933 181.094C45.7916 181.92 48.0155 183.15 49.3633 183.79C50.7111 184.447 52.7497 185.357 53.9122 185.828C55.0746 186.283 56.8436 186.924 57.8713 187.261C58.899 187.581 60.9376 188.153 62.4202 188.524C63.9028 188.895 66.0592 189.333 67.2217 189.518C68.3842 189.703 70.1195 189.956 71.0967 190.074C72.1918 190.209 74.7863 190.293 77.8357 190.293C80.8177 190.293 83.547 190.209 84.6589 190.074C85.6698 189.956 87.4219 189.703 88.5339 189.518C89.6458 189.333 91.617 188.928 92.9142 188.608C94.2115 188.305 96.368 187.699 97.7158 187.244C99.0636 186.806 101.035 186.098 102.096 185.66C103.158 185.222 105.095 184.329 106.392 183.672C107.69 183.032 109.425 182.105 110.267 181.617C111.11 181.128 112.778 180.05 113.974 179.241C115.17 178.432 117.192 176.95 118.438 175.956C119.685 174.945 122.01 172.839 123.577 171.255C125.16 169.689 127.266 167.364 128.277 166.117C129.271 164.87 130.754 162.865 131.563 161.652C132.371 160.456 133.466 158.738 133.989 157.862C134.494 156.985 135.522 155.048 136.246 153.565C136.971 152.083 137.897 150.027 138.302 149.017C138.706 148.006 139.312 146.287 139.666 145.226C140.02 144.164 140.576 142.227 140.913 140.93C141.233 139.633 141.688 137.476 141.924 136.128C142.16 134.78 142.446 132.893 142.564 131.916C142.699 130.804 142.783 128.159 142.783 124.756C142.783 120.578 142.716 118.843 142.48 117.006C142.311 115.709 141.924 113.367 141.604 111.784C141.284 110.2 140.728 107.892 140.357 106.645C139.986 105.398 139.43 103.646 139.11 102.77C138.79 101.894 138.217 100.411 137.813 99.4848C137.425 98.5582 136.549 96.7049 135.859 95.3571C135.185 94.0093 134.005 91.8865 133.23 90.6398C132.455 89.3931 131.057 87.3209 130.097 86.0404C129.153 84.7769 127.587 82.8394 126.626 81.7443C125.683 80.6661 123.981 78.9139 122.886 77.8525C121.791 76.808 119.887 75.1401 118.691 74.1798C117.495 73.2026 115.439 71.7032 114.142 70.8439C112.845 69.9847 110.941 68.8054 109.93 68.2157C108.919 67.6261 107.167 66.7163 106.055 66.194C104.943 65.6549 103.09 64.8462 101.928 64.3913C100.765 63.9365 98.9457 63.2794 97.8843 62.9256C96.8229 62.5886 94.8854 62.0495 93.5881 61.7294C92.2909 61.4093 90.3534 61.005 89.292 60.8197C88.2306 60.6343 86.4111 60.3816 85.2486 60.2468C84.0861 60.1121 81.9465 59.9267 77.8357 59.7246V47.3416H79.9079C81.0367 47.3416 82.8731 47.4259 83.985 47.5101C85.097 47.6112 87.1524 47.847 88.5339 48.0324C89.9322 48.2177 91.8192 48.5209 92.7458 48.7063C93.6724 48.8916 95.374 49.2791 96.5365 49.5486C97.6989 49.8351 99.7375 50.4079 101.085 50.8291C102.433 51.2334 104.859 52.1095 106.477 52.7497C108.094 53.3899 110.57 54.4681 111.952 55.142C113.35 55.8328 115.321 56.8605 116.332 57.4501C117.343 58.023 119.466 59.3539 121.05 60.3985C122.633 61.443 125.127 63.2794 126.609 64.4587C128.26 65.7897 130.619 67.9293 132.691 70.0016C134.545 71.8548 136.634 74.0618 137.341 74.8874C138.032 75.7129 139.211 77.1955 139.936 78.1726C140.677 79.1498 141.89 80.8514 142.648 81.9633C143.39 83.0753 144.586 85.0127 145.31 86.2595C146.051 87.5062 147.264 89.8143 148.023 91.398C148.781 92.9816 149.758 95.1718 150.196 96.2838C150.634 97.3957 151.409 99.5522 151.914 101.085C152.42 102.618 153.127 105.078 153.481 106.561C153.852 108.043 154.34 110.351 154.559 111.699C154.795 113.047 155.115 115.237 155.284 116.585C155.52 118.523 155.587 120.308 155.587 125.177C155.587 130.114 155.52 131.815 155.284 133.77C155.115 135.117 154.778 137.274 154.559 138.571C154.324 139.868 153.852 142.143 153.481 143.625C153.127 145.108 152.47 147.416 152.032 148.764C151.611 150.112 150.802 152.336 150.263 153.734C149.724 155.115 148.646 157.541 147.871 159.125C147.096 160.709 145.984 162.832 145.394 163.842C144.822 164.853 143.71 166.639 142.951 167.802C142.193 168.964 140.93 170.75 140.155 171.778C139.38 172.822 137.897 174.642 136.886 175.821C135.876 177.017 133.972 179.039 132.674 180.336C131.377 181.617 129.17 183.638 127.772 184.801C126.373 185.963 124.369 187.547 123.307 188.305C122.246 189.063 120.359 190.327 119.112 191.102C117.865 191.877 115.928 193.022 114.816 193.629C113.704 194.235 111.8 195.179 110.604 195.735C109.408 196.274 107.538 197.083 106.477 197.504C105.415 197.925 103.478 198.616 102.18 199.054C100.883 199.475 98.6593 200.132 97.2441 200.503C95.8457 200.856 93.6387 201.345 92.3583 201.581C91.0947 201.817 88.9045 202.154 87.523 202.339C86.1247 202.524 83.3954 202.743 81.4579 202.845C78.9645 202.979 76.9091 202.979 74.4662 202.861C72.5624 202.76 69.7826 202.524 68.2663 202.339C66.7668 202.154 64.5261 201.8 63.2962 201.564C62.0832 201.328 60.011 200.873 58.7137 200.553C57.4165 200.216 55.2937 199.61 53.9964 199.189C52.6991 198.767 50.4584 197.976 49.0264 197.403C47.5943 196.847 44.9324 195.651 43.1297 194.741C41.327 193.848 38.8168 192.483 37.57 191.725C36.3233 190.967 34.4195 189.737 33.3582 188.996C32.2968 188.238 30.8142 187.159 30.0729 186.57C29.3316 185.997 27.849 184.784 26.7876 183.874C25.7262 182.948 23.8898 181.229 22.6768 180.016C21.4806 178.803 19.779 176.984 18.903 175.973C18.0269 174.962 16.5443 173.092 15.6008 171.845C14.6574 170.598 13.4443 168.897 12.8884 168.054C12.3493 167.212 11.3721 165.662 10.7319 164.601C10.1085 163.539 9.06398 161.635 8.42378 160.389C7.80042 159.142 6.80641 157.019 6.23359 155.671C5.66078 154.324 4.70047 151.796 4.1108 150.027C3.52114 148.258 2.74615 145.58 2.3755 144.047C2.00486 142.513 1.49943 140.239 1.28041 138.992C1.04455 137.746 0.741292 135.69 0.606512 134.443C0.454884 133.197 0.269561 130.686 0.168476 128.884C0.0673902 126.845 0 101.81 0 62.7908L0 0ZM17.8584 0H30.6625L30.7636 130.484L31.1174 132.59C31.3196 133.753 31.606 135.235 31.7576 135.876C31.9093 136.533 32.2631 137.864 32.5495 138.824C32.819 139.801 33.3918 141.469 33.813 142.53C34.2342 143.609 35.0934 145.495 35.7337 146.742C36.357 148.006 37.3847 149.825 38.0081 150.786C38.6146 151.763 39.676 153.279 40.3667 154.155C41.0406 155.048 42.2537 156.48 43.0455 157.356C43.8542 158.249 45.202 159.597 46.0444 160.372C46.9036 161.147 48.4367 162.41 49.4476 163.185C50.4753 163.944 52.1263 165.072 53.1203 165.696C54.1143 166.302 55.7822 167.229 56.8268 167.751C57.8713 168.273 59.5561 169.015 60.5669 169.419C61.5946 169.823 63.2962 170.413 64.3576 170.733C65.419 171.053 67.2386 171.508 68.4011 171.744C69.5635 171.98 71.2988 172.266 72.276 172.384C73.2868 172.519 75.7129 172.603 77.9199 172.603C80.0933 172.603 82.5698 172.519 83.5639 172.384C84.541 172.266 86.2426 171.997 87.3546 171.761C88.4665 171.542 90.2186 171.121 91.2295 170.834C92.2572 170.531 94.0262 169.924 95.1887 169.486C96.3511 169.031 98.2381 168.172 99.4006 167.583C100.563 167.01 102.265 166.049 103.191 165.46C104.118 164.87 105.567 163.893 106.392 163.27C107.235 162.629 108.633 161.484 109.509 160.692C110.385 159.917 111.666 158.67 112.356 157.946C113.047 157.204 114.159 155.924 114.833 155.099C115.49 154.256 116.535 152.858 117.124 151.965C117.714 151.089 118.657 149.573 119.196 148.612C119.752 147.635 120.595 145.933 121.1 144.805C121.589 143.693 122.296 141.924 122.65 140.862C123.021 139.784 123.509 138.15 123.728 137.223C123.964 136.314 124.301 134.679 124.503 133.618C124.689 132.54 124.908 130.838 125.009 129.81C125.11 128.8 125.177 126.828 125.177 125.447C125.177 124.049 125.11 122.077 125.009 121.05C124.908 120.039 124.689 118.337 124.503 117.276C124.335 116.198 123.981 114.563 123.745 113.637C123.509 112.727 123.055 111.211 122.751 110.284C122.431 109.357 121.791 107.69 121.319 106.561C120.831 105.449 119.988 103.714 119.415 102.703C118.843 101.675 117.882 100.074 117.259 99.1478C116.636 98.2381 115.658 96.8566 115.069 96.1321C114.479 95.3908 113.435 94.1441 112.727 93.3523C112.019 92.5773 110.688 91.2632 109.762 90.4208C108.835 89.5953 107.252 88.2812 106.224 87.523C105.213 86.7649 103.764 85.7709 103.023 85.316C102.281 84.8443 100.951 84.0861 100.074 83.6144C99.1984 83.1427 97.7495 82.4351 96.8734 82.0476C95.9973 81.6601 94.3968 81.0536 93.3354 80.6829C92.274 80.3123 90.3703 79.7563 89.1235 79.453C87.8768 79.1498 85.9394 78.7623 84.8274 78.5938C83.7155 78.4422 81.7106 78.2569 77.9199 78.0884L77.8357 65.537L78.8128 65.5538C79.3351 65.5538 80.8009 65.6212 82.0476 65.7223C83.2943 65.8065 85.1644 66.0087 86.1752 66.1435C87.2029 66.2951 89.0562 66.6321 90.3029 66.9016C91.5496 67.1543 93.4871 67.6429 94.599 67.963C95.7109 68.2831 97.6821 68.9402 98.9794 69.4456C100.277 69.9342 102.669 70.9956 104.286 71.8043C105.904 72.5961 108.178 73.8597 109.341 74.5841C110.503 75.3086 112.323 76.5553 113.384 77.364C114.445 78.1558 116.012 79.4025 116.838 80.127C117.68 80.8514 119.078 82.1655 119.955 83.0584C120.831 83.9513 122.212 85.4171 123.004 86.3605C123.796 87.2703 124.908 88.6518 125.464 89.3763C126.02 90.1175 126.929 91.4148 127.485 92.2572C128.041 93.0827 129.035 94.7169 129.709 95.8626C130.366 97.025 131.394 99.0299 131.984 100.344C132.573 101.641 133.416 103.663 133.837 104.842C134.258 106.022 134.882 107.925 135.185 109.054C135.505 110.183 135.96 112.019 136.196 113.148C136.415 114.26 136.718 115.962 136.87 116.922C137.004 117.899 137.206 119.87 137.324 121.319C137.442 122.886 137.476 125.16 137.425 127.031C137.358 128.749 137.24 130.872 137.139 131.765C137.038 132.641 136.802 134.258 136.617 135.37C136.431 136.499 136.061 138.352 135.774 139.515C135.488 140.66 134.865 142.834 134.359 144.299C133.871 145.782 133.045 147.989 132.523 149.202C131.984 150.398 131.141 152.184 130.619 153.144C130.097 154.121 129.187 155.722 128.581 156.699C127.991 157.659 127.031 159.108 126.475 159.883C125.902 160.675 124.84 162.073 124.099 163.017C123.358 163.927 121.69 165.78 120.376 167.111C119.078 168.442 117.107 170.312 115.979 171.239C114.867 172.182 113.249 173.446 112.407 174.035C111.548 174.642 110.048 175.653 109.054 176.276C108.043 176.899 106.055 178.011 104.623 178.753C103.191 179.477 100.951 180.488 99.6533 180.993C98.356 181.516 96.5702 182.156 95.6941 182.442C94.818 182.712 93.3354 183.133 92.4088 183.369C91.4822 183.605 89.9322 183.958 88.9551 184.144C87.9779 184.329 86.3605 184.615 85.3328 184.75C84.2714 184.902 81.6264 185.054 79.0993 185.121C76.252 185.171 73.9271 185.138 72.4445 185.003C71.1977 184.885 69.075 184.615 67.7272 184.396C66.3793 184.161 64.2566 183.723 63.0098 183.402C61.7631 183.082 59.6403 182.442 58.2925 181.987C56.9447 181.532 54.7882 180.69 53.491 180.117C52.1937 179.544 50.2225 178.584 49.1106 177.978C47.9987 177.354 46.2128 176.293 45.1514 175.602C44.09 174.894 42.6075 173.884 41.8662 173.311C41.1249 172.755 39.8445 171.727 39.0021 171.019C38.1766 170.329 36.5423 168.812 35.3799 167.65C34.2174 166.487 32.7011 164.853 31.9935 164.011C31.2859 163.185 30.1234 161.686 29.3821 160.709C28.6577 159.715 27.5963 158.165 27.0235 157.255C26.4507 156.345 25.524 154.762 24.9681 153.734C24.4121 152.723 23.5023 150.87 22.9464 149.606C22.3904 148.36 21.5649 146.237 21.11 144.889C20.6383 143.558 19.998 141.401 19.6611 140.087C19.3241 138.79 18.903 136.87 18.7008 135.791C18.5155 134.73 18.2459 132.809 18.1111 131.495C17.8921 129.457 17.8584 120.494 17.8584 64.5767V0ZM36.0538 0H48.5209L48.5378 62.3865C48.5378 97.3283 48.6052 125.716 48.6894 126.946C48.7737 128.142 48.9927 129.895 49.178 130.821C49.3633 131.748 49.7508 133.23 50.0372 134.107C50.3236 134.983 51.0818 136.768 51.722 138.066C52.379 139.363 53.4236 141.149 54.0469 142.025C54.6703 142.901 56.1192 144.569 57.2817 145.731C58.4442 146.894 60.1121 148.343 60.9881 148.983C61.8642 149.606 63.65 150.651 64.9473 151.291C66.2446 151.931 67.9967 152.689 68.8222 152.959C69.6646 153.245 71.1304 153.616 72.1075 153.818C73.0847 154.02 74.7863 154.239 75.8982 154.324C77.0944 154.408 78.7455 154.408 79.9416 154.324C81.0536 154.239 82.7215 154.02 83.6481 153.835C84.5747 153.65 86.0573 153.262 86.9334 152.976C87.8094 152.673 89.4436 151.999 90.5556 151.459C91.6675 150.92 93.268 150.027 94.0936 149.455C94.936 148.899 96.2501 147.888 97.0419 147.214C97.8169 146.54 99.0636 145.31 99.788 144.468C100.529 143.625 101.658 142.16 102.315 141.182C102.955 140.205 103.848 138.655 104.303 137.729C104.741 136.802 105.381 135.252 105.702 134.275C106.022 133.298 106.46 131.714 106.679 130.737C106.999 129.204 107.049 128.463 107.066 125.262C107.066 122.33 106.999 121.201 106.763 119.87C106.578 118.944 106.106 117.158 105.702 115.911C105.28 114.664 104.489 112.761 103.933 111.699C103.393 110.638 102.416 109.037 101.793 108.178C101.17 107.302 99.9902 105.87 99.1478 104.994C98.3223 104.118 97.1093 102.955 96.4522 102.433C95.812 101.911 94.6327 101.052 93.8409 100.546C93.049 100.024 91.7349 99.2658 90.8925 98.8614C90.067 98.4402 88.854 97.9011 88.1969 97.6653C87.5567 97.4294 86.4953 97.0756 85.8383 96.8903C85.1981 96.7049 83.985 96.4354 83.1427 96.2669C82.3171 96.1153 80.8009 95.9468 77.9199 95.7783L77.8862 89.5784C77.8525 84.76 77.8862 83.3785 78.0547 83.2943C78.1726 83.2438 79.4025 83.2943 80.784 83.3954C82.1824 83.4965 83.9513 83.6986 84.7432 83.8334C85.535 83.9682 87.1187 84.3051 88.2812 84.5916C89.4436 84.878 91.2295 85.4171 92.2403 85.7877C93.268 86.1584 95.0033 86.8997 96.1153 87.4219C97.2272 87.9611 98.8614 88.8371 99.7375 89.3763C100.614 89.8985 102.18 90.9599 103.191 91.7349C104.219 92.4931 105.921 93.9419 106.965 94.9528C108.026 95.9636 109.492 97.5136 110.234 98.3897C110.975 99.2658 112.222 100.967 113.03 102.18C113.839 103.377 114.985 105.398 115.608 106.645C116.231 107.892 116.989 109.644 117.326 110.52C117.646 111.396 118.118 112.794 118.354 113.637C118.59 114.479 118.977 116.063 119.196 117.175C119.415 118.287 119.685 119.938 119.786 120.831C119.87 121.74 119.955 123.829 119.955 125.464C119.955 127.115 119.853 129.339 119.719 130.4C119.584 131.461 119.314 133.096 119.129 134.022C118.927 134.949 118.573 136.381 118.337 137.223C118.084 138.066 117.562 139.616 117.141 140.677C116.737 141.738 115.945 143.491 115.406 144.552C114.867 145.613 113.873 147.332 113.216 148.343C112.542 149.354 111.43 150.92 110.722 151.796C110.015 152.673 108.65 154.189 107.673 155.166C106.696 156.143 105.247 157.457 104.455 158.097C103.663 158.721 102.113 159.85 101.001 160.591C99.8891 161.332 97.8506 162.495 96.4522 163.185C95.0707 163.859 92.7963 164.803 91.398 165.258C90.0165 165.713 87.9948 166.285 86.9334 166.521C85.872 166.757 84.0187 167.06 82.8057 167.212C81.6095 167.347 79.4025 167.465 77.9199 167.465C76.4373 167.465 74.264 167.347 73.0847 167.212C71.9053 167.077 70.0858 166.774 69.0413 166.538C67.9967 166.319 66.531 165.948 65.7897 165.729C65.0484 165.493 63.6837 165.039 62.7571 164.685C61.8305 164.348 60.011 163.522 58.7137 162.848C57.4165 162.191 55.5969 161.13 54.6703 160.523C53.7437 159.9 52.3453 158.872 51.5535 158.249C50.7617 157.626 49.2117 156.194 48.0998 155.082C46.971 153.97 45.5052 152.336 44.8313 151.459C44.1574 150.583 43.3151 149.438 42.9613 148.932C42.6243 148.427 41.883 147.214 41.327 146.237C40.7542 145.26 39.9624 143.71 39.5412 142.783C39.1369 141.856 38.5135 140.306 38.1766 139.329C37.8396 138.352 37.3342 136.684 37.0815 135.623C36.8119 134.561 36.4749 132.961 36.3233 132.085C36.1717 131.209 35.9864 129.389 35.9021 128.041C35.7842 126.441 35.7842 125.548 35.9021 125.43C36.0032 125.329 36.0706 103.309 36.0538 62.6223V0ZM246.985 47.7797C249.361 47.8134 252.393 47.965 253.724 48.1166C255.072 48.2514 257.228 48.5546 258.526 48.7737C259.823 48.9927 261.794 49.3802 262.906 49.6329C264.018 49.8688 266.09 50.4079 267.505 50.8122C268.921 51.2334 271.077 51.9242 272.307 52.379C273.537 52.8339 275.289 53.5247 276.216 53.9122C277.142 54.2997 279.08 55.2094 280.512 55.9339C281.961 56.6583 283.999 57.7534 285.061 58.3936C286.139 59.017 288.11 60.2805 289.441 61.1735C290.789 62.0832 292.76 63.5321 293.821 64.3745C294.9 65.2337 296.601 66.6658 297.612 67.5755C298.64 68.4853 299.768 69.5298 300.813 70.6081L296.433 74.9884C294.023 77.3977 291.985 79.352 291.884 79.352C291.8 79.352 290.957 78.6107 290.031 77.7178C289.104 76.8248 287.436 75.3591 286.324 74.483C285.212 73.5901 283.393 72.2591 282.281 71.5179C281.169 70.7597 279.585 69.7489 278.743 69.2603C277.917 68.7717 276.283 67.8956 275.121 67.306C273.975 66.7331 272.071 65.8571 270.909 65.3685C269.763 64.8799 267.792 64.1555 266.528 63.7343C265.282 63.3299 263.192 62.7403 261.895 62.4202C260.598 62.1001 258.711 61.6789 257.683 61.5104C256.672 61.3251 254.853 61.0555 253.64 60.9039C252.444 60.7691 249.866 60.6006 247.912 60.5501C245.789 60.4827 243.346 60.5164 241.762 60.6512C240.33 60.7523 238.09 60.9881 236.792 61.1735C235.495 61.3756 233.574 61.7126 232.496 61.9316C231.435 62.1506 229.48 62.6392 228.166 63.0098C226.852 63.3805 224.915 64.0038 223.87 64.3913C222.826 64.762 220.871 65.5707 219.524 66.1603C218.193 66.75 215.918 67.8788 214.469 68.6706C213.037 69.4793 210.948 70.7429 209.836 71.4842C208.724 72.2254 207.208 73.3037 206.467 73.8597C205.725 74.4325 204.597 75.3422 203.94 75.8982C203.299 76.4542 202.053 77.5661 201.16 78.3748C200.284 79.1666 198.767 80.7166 197.79 81.8117C196.83 82.89 195.465 84.4736 194.791 85.316C194.117 86.1584 192.904 87.8431 192.079 89.0393C191.27 90.2523 190.141 92.0382 189.585 92.9985C189.03 93.9756 188.238 95.4582 187.816 96.2838C187.395 97.1261 186.721 98.6087 186.3 99.569C185.879 100.546 185.256 102.096 184.919 103.023C184.565 103.949 183.958 105.853 183.554 107.235C183.167 108.633 182.594 110.941 182.324 112.373C182.038 113.822 181.667 115.979 181.516 117.175C181.28 118.91 181.212 120.612 181.212 125.093C181.195 129.726 181.263 131.276 181.516 133.096C181.684 134.359 182.004 136.364 182.24 137.56C182.459 138.773 182.88 140.627 183.167 141.688C183.436 142.766 183.942 144.468 184.262 145.479C184.599 146.506 185.239 148.292 185.694 149.438C186.149 150.6 187.092 152.689 187.766 154.071C188.457 155.469 189.602 157.592 190.327 158.805C191.051 160.001 192.18 161.753 192.82 162.68C193.46 163.607 194.758 165.308 195.684 166.454C196.611 167.616 198.649 169.857 200.233 171.441C201.817 173.024 203.973 175.029 205.035 175.888C206.113 176.748 207.697 177.978 208.573 178.601C209.466 179.224 210.999 180.235 211.993 180.842C212.987 181.465 214.739 182.459 215.868 183.049C216.996 183.638 218.681 184.464 219.608 184.885C220.534 185.289 222.32 186.014 223.567 186.469C224.831 186.94 226.953 187.631 228.284 188.002C229.632 188.356 231.688 188.861 232.833 189.097C233.996 189.333 236.203 189.703 237.719 189.906C240.111 190.243 241.257 190.293 245.806 190.293C249.95 190.293 251.635 190.226 253.471 189.99C254.769 189.821 256.824 189.501 258.02 189.265C259.233 189.046 261.204 188.591 262.401 188.288C263.614 187.968 265.736 187.311 267.118 186.839C268.516 186.368 270.757 185.475 272.088 184.885C273.436 184.295 275.491 183.301 276.637 182.661C277.799 182.038 279.501 181.044 280.427 180.471C281.354 179.881 282.955 178.803 283.965 178.079C284.993 177.337 286.476 176.209 287.251 175.551C288.043 174.894 289.407 173.681 291.884 171.373L300.813 180.286L299.229 181.751C298.353 182.56 296.989 183.79 296.197 184.464C295.405 185.155 293.889 186.368 292.81 187.176C291.749 187.968 289.896 189.282 288.683 190.074C287.487 190.866 285.667 191.995 284.639 192.584C283.629 193.174 281.421 194.303 279.754 195.111C278.086 195.92 275.811 196.948 274.699 197.386C273.587 197.824 271.465 198.582 269.982 199.071C268.499 199.559 266.073 200.267 264.591 200.637C263.108 200.991 260.8 201.497 259.452 201.733C258.121 201.985 256.032 202.289 254.819 202.423C253.623 202.575 251.113 202.76 249.26 202.861C246.867 202.996 244.879 202.979 242.352 202.861C240.415 202.76 237.601 202.524 236.118 202.339C234.636 202.154 231.957 201.699 230.138 201.328C228.335 200.974 225.69 200.334 224.241 199.913C222.809 199.509 220.652 198.818 219.439 198.397C218.243 197.959 216.373 197.234 215.278 196.779C214.183 196.325 212.077 195.347 210.594 194.589C209.112 193.848 207.056 192.753 206.012 192.129C204.967 191.506 203.013 190.259 201.665 189.35C200.334 188.44 198.397 187.042 197.369 186.233C196.358 185.424 194.69 184.026 193.663 183.133C192.652 182.223 190.984 180.639 189.956 179.578C188.928 178.534 187.446 176.899 186.654 175.973C185.862 175.046 184.498 173.344 183.621 172.182C182.745 171.036 181.431 169.166 180.707 168.054C179.966 166.959 178.854 165.123 178.213 164.011C177.573 162.916 176.495 160.86 175.821 159.462C175.147 158.081 174.086 155.688 173.479 154.155C172.89 152.639 172.081 150.398 171.693 149.185C171.306 147.989 170.666 145.63 170.245 143.962C169.84 142.294 169.318 139.835 169.082 138.487C168.863 137.156 168.543 134.831 168.374 133.348C168.155 131.377 168.088 129.305 168.088 125.514C168.071 121.791 168.155 119.668 168.374 117.764C168.526 116.332 168.846 114.024 169.082 112.626C169.318 111.244 169.84 108.734 170.245 107.066C170.666 105.398 171.373 102.905 171.828 101.506C172.283 100.125 173.058 97.9685 173.547 96.7049C174.052 95.4582 175.147 93.0322 175.99 91.3137C176.832 89.6121 178.045 87.3377 178.685 86.2595C179.308 85.1981 180.353 83.5302 181.01 82.553C181.65 81.5927 182.745 80.0259 183.453 79.0993C184.144 78.1726 185.441 76.5553 186.317 75.477C187.21 74.4156 189.198 72.2928 190.714 70.7597C192.247 69.2097 194.303 67.2723 195.263 66.4467C196.24 65.6212 197.942 64.2566 199.054 63.4142C200.166 62.5886 201.884 61.3588 202.845 60.7186C203.822 60.0615 205.49 59.017 206.551 58.3936C207.629 57.7534 209.904 56.5404 211.605 55.698C213.324 54.8556 215.75 53.7605 216.996 53.272C218.26 52.7665 220.383 52.0084 221.714 51.5535C223.062 51.1155 225.42 50.4416 226.937 50.0709C228.47 49.6834 230.744 49.1949 231.991 48.959C233.254 48.74 235.259 48.4367 236.455 48.2851C237.668 48.1335 239.555 47.9313 240.667 47.8639C241.779 47.7797 244.626 47.746 246.985 47.7797ZM246.985 65.6381C249.074 65.6718 251.736 65.8065 252.882 65.9582C254.044 66.0929 255.864 66.3625 256.925 66.5647C258.003 66.75 259.873 67.1712 261.103 67.4913C262.333 67.8114 264.271 68.3842 265.399 68.7717C266.528 69.1423 268.516 69.9173 269.814 70.4733C271.111 71.0124 272.981 71.8885 273.941 72.4108C274.918 72.933 276.586 73.8934 277.648 74.5504C278.726 75.2075 280.461 76.3868 281.523 77.1786C282.601 77.9705 284.269 79.3183 285.229 80.1606C286.206 81.003 287.301 81.997 288.346 83.0584L286.594 84.878C285.617 85.872 283.612 87.9105 279.417 92.1561L277.985 90.8251C277.21 90.0838 276.03 89.0562 275.373 88.5339C274.733 88.0116 273.25 86.9502 272.088 86.1752C270.942 85.4002 269.123 84.322 268.045 83.766C266.983 83.2101 265.467 82.4688 264.675 82.1318C263.9 81.7949 262.485 81.2557 261.558 80.9356C260.632 80.6155 259.014 80.127 257.936 79.8574C256.875 79.5878 255.089 79.234 253.977 79.0487C252.865 78.8634 250.675 78.6275 249.091 78.5096C246.935 78.3748 245.553 78.3748 243.447 78.5096C241.931 78.6275 239.757 78.8634 238.646 79.0487C237.534 79.234 235.765 79.5878 234.686 79.8574C233.625 80.127 231.89 80.6492 230.811 81.0199C229.75 81.3905 228.234 81.9633 227.442 82.3003C226.667 82.6372 225.151 83.3785 224.072 83.9345C223.011 84.4905 221.191 85.5687 220.029 86.3437C218.883 87.1187 217.215 88.3149 216.323 89.0393C215.446 89.7469 213.981 91.061 213.071 91.9708C212.161 92.8637 210.931 94.1273 210.359 94.7675C209.786 95.4245 208.842 96.5533 208.286 97.2946C207.73 98.0359 206.854 99.2995 206.349 100.074C205.827 100.866 205.052 102.197 204.597 103.023C204.142 103.865 203.4 105.348 202.946 106.308C202.508 107.285 201.733 109.307 201.244 110.773C200.755 112.255 200.166 114.378 199.93 115.49C199.694 116.602 199.374 118.506 199.205 119.702C199.02 121.168 198.936 123.088 198.936 125.43C198.936 127.721 199.02 129.726 199.205 131.074C199.357 132.236 199.627 133.938 199.812 134.865C200.014 135.791 200.402 137.392 200.688 138.403C200.974 139.43 201.615 141.317 202.12 142.615C202.625 143.929 203.535 145.933 204.142 147.079C204.748 148.242 205.86 150.145 206.635 151.291C207.393 152.453 208.657 154.206 209.432 155.166C210.207 156.143 211.757 157.845 212.869 158.957C213.998 160.069 215.699 161.619 216.66 162.41C217.637 163.185 219.338 164.432 220.45 165.157C221.562 165.898 223.837 167.161 225.504 167.987C227.358 168.897 229.531 169.806 231.064 170.312C232.463 170.784 234.467 171.356 235.529 171.592C236.607 171.828 238.275 172.148 239.235 172.3C240.617 172.536 242.082 172.603 245.89 172.603C249.782 172.603 251.18 172.553 252.713 172.317C253.792 172.148 255.459 171.828 256.42 171.592C257.397 171.356 258.879 170.969 259.705 170.733C260.547 170.48 262.215 169.891 263.411 169.419C264.624 168.93 266.292 168.189 267.118 167.768C267.96 167.347 269.359 166.572 270.235 166.049C271.128 165.51 272.408 164.668 273.099 164.179C273.806 163.691 274.868 162.899 275.457 162.427C276.064 161.939 277.21 160.962 279.417 158.906L288.346 167.835L287.335 168.762C286.779 169.267 285.684 170.228 284.892 170.902C284.117 171.575 282.854 172.586 282.112 173.142C281.371 173.698 280.091 174.608 279.248 175.164C278.423 175.72 277.058 176.579 276.216 177.068C275.39 177.556 273.79 178.416 272.678 178.972C271.566 179.528 269.746 180.353 268.634 180.808C267.522 181.263 265.602 181.97 264.338 182.375C263.091 182.779 261.12 183.335 259.958 183.621C258.812 183.908 256.942 184.295 255.83 184.481C254.718 184.649 253.017 184.902 252.039 185.02C250.995 185.155 248.451 185.239 245.722 185.239C242.975 185.239 240.448 185.155 239.319 185.02C238.309 184.902 236.455 184.615 235.192 184.38C233.945 184.161 232.008 183.739 230.896 183.453C229.784 183.183 227.964 182.644 226.852 182.274C225.74 181.903 224.039 181.28 223.062 180.875C222.101 180.471 220.366 179.679 219.237 179.123C218.108 178.55 216.356 177.607 215.362 177.017C214.368 176.411 212.717 175.349 211.689 174.625C210.679 173.917 209.044 172.671 208.067 171.879C207.107 171.087 205.237 169.368 203.94 168.071C202.625 166.774 200.991 165.022 200.301 164.179C199.61 163.354 198.464 161.905 197.79 160.978C197.1 160.052 195.937 158.35 195.213 157.188C194.488 156.042 193.342 153.987 192.669 152.639C191.978 151.308 191.068 149.337 190.63 148.258C190.192 147.197 189.619 145.681 189.35 144.889C189.08 144.114 188.591 142.547 188.288 141.435C187.968 140.323 187.513 138.487 187.277 137.358C187.042 136.229 186.688 134.107 186.502 132.641C186.317 131.175 186.115 128.581 186.064 126.862C185.997 125.009 186.031 122.701 186.149 121.134C186.267 119.702 186.502 117.579 186.671 116.417C186.856 115.271 187.176 113.451 187.412 112.373C187.648 111.312 188.103 109.492 188.44 108.33C188.777 107.184 189.484 105.129 189.99 103.781C190.512 102.45 191.405 100.361 191.995 99.1478C192.584 97.9517 193.646 95.9805 194.37 94.7675C195.095 93.5713 196.257 91.7855 196.948 90.8083C197.639 89.848 198.936 88.1801 199.829 87.1018C200.739 86.0404 202.592 84.0693 203.973 82.7215C205.338 81.3905 207.191 79.7058 208.067 78.9982C208.96 78.2906 210.51 77.1281 211.521 76.4036C212.549 75.696 214.2 74.6347 215.194 74.0281C216.188 73.4385 217.822 72.5456 218.816 72.057C219.81 71.5516 221.461 70.7934 222.472 70.3554C223.5 69.9173 225.437 69.1929 226.768 68.738C228.116 68.3 230.121 67.6935 231.233 67.4239C232.345 67.1375 234.316 66.7163 235.613 66.4973C236.91 66.2614 238.848 65.9919 239.909 65.8908C240.987 65.7897 242.15 65.6886 242.52 65.6381C242.891 65.6044 244.913 65.6044 246.985 65.6381ZM247.322 83.5302C248.299 83.5639 250.001 83.6986 251.113 83.8503C252.225 83.985 254.011 84.2883 255.072 84.5242C256.15 84.76 257.852 85.2149 258.863 85.5519C259.89 85.872 261.525 86.4785 262.485 86.8828C263.462 87.304 264.911 87.9779 265.686 88.3991C266.478 88.8203 268.078 89.7974 269.224 90.5556C270.386 91.3306 272.172 92.6784 273.183 93.5545C274.211 94.4305 275.171 95.2897 275.34 95.4582C275.609 95.7783 275.457 95.9468 266.714 104.708L265.821 103.865C265.332 103.41 264.591 102.753 264.17 102.416C263.765 102.079 262.855 101.422 262.148 100.967C261.457 100.496 260.059 99.7038 259.031 99.1984C258.02 98.6929 256.538 98.0359 255.746 97.7663C254.971 97.4799 253.455 97.0587 252.376 96.8229C251.315 96.587 249.462 96.3006 248.249 96.1995C246.614 96.0479 245.486 96.0479 243.784 96.1995C242.537 96.3006 240.802 96.5365 239.909 96.7218C239.033 96.9071 237.517 97.3283 236.54 97.6653C235.579 97.9854 233.911 98.6929 232.833 99.2489C231.772 99.788 230.222 100.715 229.379 101.287C228.537 101.894 226.869 103.343 225.589 104.623C224.342 105.887 222.809 107.622 222.186 108.515C221.562 109.391 220.518 111.16 219.861 112.457C219.22 113.755 218.462 115.541 218.176 116.417C217.889 117.309 217.502 118.775 217.3 119.702C216.98 121.184 216.929 121.909 216.929 125.43C216.929 129.019 216.98 129.692 217.317 131.242C217.519 132.22 217.957 133.82 218.294 134.78C218.614 135.758 219.237 137.308 219.692 138.234C220.147 139.161 220.972 140.643 221.562 141.519C222.135 142.412 223.078 143.693 223.668 144.384C224.258 145.091 225.252 146.152 225.875 146.759C226.515 147.366 227.408 148.174 227.863 148.545C228.335 148.932 229.363 149.657 230.138 150.162C230.929 150.684 232.446 151.527 233.507 152.032C234.585 152.538 236.169 153.195 237.045 153.481C237.938 153.768 239.488 154.172 240.499 154.374C242.082 154.694 242.908 154.745 245.974 154.745C249.108 154.745 249.866 154.694 251.534 154.357C252.612 154.138 254.28 153.7 255.24 153.38C256.218 153.06 258.003 152.319 259.2 151.712C260.413 151.106 262.081 150.129 262.906 149.539C263.748 148.932 264.945 147.972 266.73 146.321L275.626 155.25L275.171 155.739C274.918 156.008 273.992 156.834 273.099 157.575C272.223 158.316 270.824 159.395 269.982 159.967C269.156 160.557 267.708 161.467 266.781 162.006C265.854 162.545 264.186 163.404 263.074 163.893C261.963 164.398 260.194 165.089 259.115 165.443C258.054 165.797 256.538 166.252 255.746 166.437C254.971 166.639 253.404 166.959 252.292 167.145C250.86 167.414 249.26 167.532 246.732 167.599C244.07 167.667 242.622 167.616 240.836 167.397C239.538 167.246 237.618 166.942 236.54 166.69C235.478 166.454 233.591 165.932 232.328 165.51C231.081 165.106 228.84 164.163 227.358 163.438C225.875 162.714 223.752 161.517 222.64 160.776C221.528 160.035 219.911 158.822 219.018 158.081C218.142 157.339 216.592 155.874 215.581 154.812C214.57 153.768 213.138 152.066 212.38 151.038C211.622 150.027 210.645 148.629 210.19 147.921C209.752 147.231 208.825 145.529 208.151 144.131C207.478 142.749 206.568 140.627 206.163 139.413C205.759 138.217 205.22 136.431 204.984 135.454C204.748 134.494 204.445 132.978 204.293 132.085C204.159 131.209 203.956 129.355 203.872 127.957C203.754 126.289 203.754 124.588 203.872 122.903C203.956 121.521 204.192 119.517 204.378 118.438C204.546 117.377 204.883 115.793 205.119 114.9C205.338 114.024 205.793 112.542 206.113 111.615C206.433 110.688 207.006 109.223 207.393 108.33C207.781 107.454 208.421 106.123 208.825 105.381C209.23 104.64 210.038 103.326 210.611 102.433C211.184 101.557 212.229 100.125 212.919 99.2321C213.627 98.356 215.076 96.7723 216.154 95.6941C217.232 94.6327 218.867 93.1838 219.793 92.4762C220.72 91.7855 222.118 90.7746 222.893 90.2692C223.685 89.7637 225.05 88.9551 225.926 88.4833C226.819 88.0116 228.335 87.304 229.295 86.8828C230.272 86.4785 231.907 85.872 232.917 85.5519C233.945 85.2149 235.647 84.76 236.708 84.5242C237.786 84.2883 239.252 84.0019 239.993 83.9008C240.735 83.7829 242.301 83.6481 243.447 83.5807C244.61 83.5302 246.362 83.4965 247.322 83.5302Z" fill="#D91312"/>
<path d="M273.773 218.934C274.278 218.766 275.306 218.53 276.047 218.412C276.788 218.311 277.698 218.21 278.069 218.193C278.439 218.193 279.417 218.26 280.259 218.344C281.101 218.445 282.264 218.631 282.87 218.766C283.477 218.883 284.606 219.22 285.397 219.507C286.189 219.776 287.284 220.248 287.84 220.534C288.396 220.838 289.66 221.613 290.671 222.287C291.665 222.944 292.473 223.55 292.473 223.651C292.473 223.736 291.917 224.696 291.26 225.757C291.03 226.129 290.757 226.568 290.475 227.021L290.469 227.031C289.947 227.871 289.396 228.757 289.036 229.346C288.464 230.256 287.975 230.997 287.924 230.997C287.874 230.997 287.166 230.559 286.324 230.037C285.482 229.514 284.387 228.874 283.881 228.621C283.376 228.369 282.415 227.981 281.775 227.779C281.084 227.577 279.922 227.375 278.995 227.324C277.631 227.257 277.243 227.29 276.384 227.594C275.828 227.796 275.087 228.166 274.716 228.419C274.362 228.672 273.924 229.16 273.756 229.497C273.554 229.902 273.436 230.508 273.436 231.098C273.419 231.839 273.537 232.294 273.891 232.985C274.227 233.625 274.615 234.063 275.205 234.467C275.659 234.788 276.687 235.242 277.479 235.461L277.883 235.582C278.681 235.819 279.771 236.143 280.512 236.371C281.388 236.641 282.837 237.214 283.713 237.635C284.589 238.073 285.768 238.73 286.324 239.1C286.88 239.488 287.941 240.297 288.666 240.903C289.407 241.51 290.384 242.504 290.839 243.11C291.294 243.717 291.917 244.728 292.221 245.385C292.541 246.025 292.962 247.204 293.164 247.996C293.467 249.175 293.518 249.748 293.451 251.197C293.383 252.579 293.248 253.32 292.827 254.567C292.524 255.443 291.968 256.689 291.58 257.346C291.193 257.987 290.418 258.997 289.862 259.604C289.306 260.194 288.396 261.002 287.84 261.407C287.284 261.794 286.29 262.367 285.65 262.653C285.01 262.957 283.898 263.344 283.207 263.546C282.23 263.799 281.438 263.883 279.669 263.866C278.187 263.866 276.957 263.765 276.131 263.597C275.44 263.428 273.806 262.889 272.509 262.384C271.212 261.862 269.578 261.171 268.887 260.817C268.196 260.48 267.202 259.924 266.697 259.604C266.191 259.267 265.197 258.543 264.506 257.987C263.816 257.414 262.973 256.656 262.013 255.662L268.381 249.681L269.342 250.557C269.881 251.029 270.858 251.77 271.498 252.191C272.138 252.595 273.132 253.135 273.688 253.354C274.244 253.589 275.238 253.926 275.879 254.095C276.519 254.28 277.85 254.465 278.827 254.516C280.191 254.583 280.815 254.55 281.556 254.331C282.314 254.129 282.735 253.859 283.443 253.168C284.151 252.494 284.42 252.09 284.622 251.366C284.774 250.86 284.892 250.254 284.892 250.018C284.892 249.782 284.69 249.192 284.437 248.687C284.168 248.164 283.595 247.44 283.123 247.036C282.668 246.631 281.708 246.008 281.017 245.637C280.326 245.284 279.265 244.795 278.658 244.576C278.052 244.357 277.479 244.205 277.395 244.239C277.311 244.273 276.384 244.037 275.373 243.717C274.362 243.38 272.913 242.807 272.172 242.419C271.431 242.049 270.369 241.409 269.813 241.021C269.257 240.617 268.415 239.875 267.96 239.353C267.488 238.848 266.848 237.972 266.528 237.433C266.208 236.893 265.736 235.883 265.484 235.192C265.214 234.4 264.961 233.221 264.843 232.075C264.725 230.795 264.709 229.868 264.827 229.043C264.928 228.402 265.163 227.408 265.349 226.852C265.534 226.296 265.972 225.353 266.326 224.746C266.663 224.14 267.404 223.163 267.96 222.573C268.516 221.983 269.392 221.208 269.898 220.871C270.403 220.534 271.279 220.012 271.835 219.743C272.391 219.456 273.267 219.102 273.773 218.934Z" fill="#323232"/>
<path d="M91.7348 219.035C92.3918 218.833 93.4364 218.614 94.0934 218.53C94.7505 218.445 95.9467 218.412 96.789 218.462C97.6314 218.513 98.9455 218.648 99.7374 218.782C100.529 218.917 101.843 219.271 102.686 219.54C103.528 219.827 104.876 220.417 105.718 220.855C106.561 221.309 107.875 222.118 108.667 222.64C109.458 223.163 110.115 223.651 110.149 223.719C110.166 223.769 109.492 224.949 108.65 226.347C108.319 226.889 107.962 227.473 107.627 228.022L107.625 228.025L107.625 228.026L107.613 228.045C107.101 228.883 106.642 229.635 106.409 230.02C106.038 230.643 105.634 231.148 105.55 231.148C105.466 231.148 104.623 230.66 103.697 230.07C102.77 229.497 101.776 228.891 101.506 228.739C101.237 228.604 100.394 228.284 99.6531 228.032C98.8108 227.762 97.7325 227.56 96.789 227.493C95.6603 227.425 95.0369 227.459 94.3462 227.661C93.8407 227.813 93.032 228.183 92.5772 228.487C92.0212 228.857 91.6 229.312 91.3473 229.801C91.0272 230.441 90.9766 230.71 91.0777 231.485C91.1283 231.991 91.3136 232.715 91.4652 233.069C91.6169 233.44 91.9875 233.945 92.2739 234.215C92.5772 234.467 93.2005 234.872 93.6722 235.108C94.1271 235.343 95.3233 235.748 96.3173 236.017C97.3282 236.304 98.558 236.674 99.0635 236.843C99.5689 237.028 100.563 237.433 101.254 237.77C101.944 238.09 103.191 238.814 104.034 239.353C104.876 239.909 106.106 240.869 106.797 241.527C107.47 242.167 108.346 243.144 108.717 243.7C109.105 244.256 109.61 245.166 109.863 245.722C110.115 246.278 110.452 247.221 110.621 247.828C110.823 248.586 110.924 249.512 110.924 250.86C110.907 252.579 110.857 252.983 110.385 254.398C110.082 255.274 109.526 256.521 109.138 257.178C108.751 257.818 107.858 258.947 107.15 259.671C106.46 260.396 105.432 261.289 104.876 261.643C104.32 262.013 103.259 262.535 102.517 262.805C101.776 263.075 100.563 263.378 99.8216 263.462C98.9624 263.58 97.6146 263.58 96.1152 263.496C94.8179 263.412 92.9983 263.176 92.0717 262.973C91.1451 262.771 89.7468 262.384 88.9549 262.114C88.1631 261.845 86.7985 261.238 85.9224 260.783C85.0463 260.328 83.7322 259.52 83.0246 258.981C82.317 258.458 81.2219 257.532 79.4866 255.83L80.5817 254.819C80.6871 254.72 80.8204 254.595 80.9871 254.438L80.9956 254.43L80.9975 254.429C81.7666 253.707 83.2363 252.327 85.9224 249.765L86.8995 250.708C87.4218 251.214 88.1968 251.871 88.618 252.157C89.0392 252.444 89.8479 252.899 90.4207 253.202C91.0103 253.488 92.1391 253.926 92.9478 254.162C93.9755 254.465 95.0032 254.634 96.2836 254.684C97.6988 254.752 98.3559 254.718 99.0635 254.516C99.6194 254.348 100.276 253.994 100.731 253.606C101.119 253.252 101.641 252.579 101.877 252.124C102.13 251.585 102.281 250.978 102.298 250.439C102.298 249.917 102.18 249.344 101.978 248.923C101.793 248.552 101.186 247.828 100.647 247.322C100.007 246.732 99.0803 246.109 98.0526 245.604C97.1765 245.166 96.0646 244.711 95.6097 244.61C95.138 244.509 94.0934 244.239 93.2511 244.003C92.4087 243.784 91.0609 243.279 90.2185 242.874C89.3761 242.487 88.2473 241.863 87.6914 241.476C87.1354 241.105 86.1246 240.196 85.4338 239.471C84.5746 238.545 84.0018 237.736 83.5469 236.792C83.1931 236.051 82.7887 234.956 82.6371 234.349C82.5023 233.743 82.3339 232.463 82.2665 231.485C82.1822 230.121 82.2328 229.413 82.4686 228.369C82.6203 227.627 83.0078 226.482 83.311 225.841C83.5974 225.184 84.2039 224.207 84.642 223.651C85.08 223.095 85.9561 222.219 86.5794 221.714C87.2196 221.208 88.3653 220.467 89.1403 220.08C89.9153 219.709 91.0777 219.22 91.7348 219.035Z" fill="#323232"/>
<path d="M237.635 218.58C236.893 218.698 235.68 219.001 234.939 219.237C234.198 219.49 233.018 220.029 232.328 220.433C231.637 220.838 230.609 221.579 230.07 222.068C229.531 222.573 228.756 223.432 228.352 223.988C227.964 224.544 227.408 225.521 227.139 226.178C226.852 226.819 226.549 227.779 226.431 228.284C226.296 228.874 226.246 230.02 226.296 231.485C226.364 233.49 226.448 233.945 226.903 235.276C227.206 236.102 227.695 237.197 227.981 237.702C228.284 238.208 229.076 239.151 229.716 239.825C230.407 240.533 231.485 241.375 232.328 241.88C233.119 242.352 234.215 242.925 234.77 243.161C235.326 243.397 236.455 243.784 237.298 244.037C238.14 244.273 238.848 244.441 238.898 244.391C238.949 244.34 239.471 244.492 240.077 244.728C240.684 244.963 241.745 245.452 242.436 245.806C243.127 246.176 244.104 246.834 244.609 247.272C245.165 247.777 245.671 248.417 245.94 249.007C246.277 249.731 246.345 250.102 246.277 250.692C246.227 251.113 246.025 251.753 245.839 252.124C245.671 252.494 245.25 253.05 244.946 253.37C244.626 253.674 244.07 254.095 243.7 254.297C243.11 254.6 242.739 254.651 240.751 254.651C239.067 254.651 238.224 254.567 237.466 254.348C236.91 254.179 235.967 253.859 235.36 253.623C234.754 253.387 233.81 252.915 233.254 252.579C232.698 252.242 231.687 251.483 231.013 250.911L229.8 249.849C224.965 254.415 223.567 255.796 223.567 255.864C223.55 255.948 223.954 256.386 224.443 256.841C224.932 257.313 225.673 257.97 226.094 258.29C226.515 258.627 227.307 259.2 227.863 259.587C228.419 259.958 229.548 260.598 230.39 261.019C231.232 261.44 232.85 262.114 234.012 262.535C235.175 262.957 236.792 263.428 237.635 263.597C238.612 263.782 239.943 263.883 241.341 263.883C243.026 263.883 243.834 263.799 244.879 263.529C245.62 263.327 246.951 262.805 247.827 262.367C248.99 261.777 249.765 261.221 250.742 260.295C251.483 259.604 252.393 258.576 252.764 258.02C253.151 257.464 253.657 256.555 253.926 255.999C254.179 255.443 254.55 254.381 254.735 253.64C254.954 252.764 255.089 251.736 255.089 250.692C255.089 249.731 254.988 248.653 254.819 247.996C254.667 247.389 254.364 246.48 254.162 245.974C253.96 245.469 253.488 244.593 253.117 244.037C252.764 243.498 252.073 242.622 251.618 242.133C251.146 241.628 250.051 240.667 249.175 240.01C248.299 239.336 246.732 238.376 245.721 237.854C244.711 237.348 243.262 236.725 242.52 236.489C241.779 236.253 240.6 235.899 239.909 235.714C239.218 235.529 238.292 235.226 237.837 235.04C237.399 234.838 236.691 234.366 236.27 233.962C235.68 233.423 235.444 233.035 235.242 232.328C235.107 231.822 235.006 231.064 235.057 230.643C235.091 230.222 235.276 229.615 235.478 229.295C235.714 228.891 236.203 228.503 237.062 228.049C238.14 227.459 238.494 227.375 239.656 227.307C240.566 227.257 241.442 227.324 242.352 227.526C243.093 227.678 244.374 228.133 245.216 228.52C246.058 228.925 247.322 229.666 248.03 230.205C248.754 230.727 249.377 231.148 249.428 231.148C249.478 231.148 249.916 230.491 250.422 229.666C250.91 228.857 251.938 227.172 252.713 225.926C253.471 224.679 254.044 223.634 253.96 223.618C253.876 223.584 253.067 223.078 252.157 222.472C251.264 221.865 249.9 221.057 249.125 220.669C248.366 220.299 247.103 219.76 246.311 219.49C245.519 219.237 244.239 218.9 243.447 218.782C242.655 218.648 241.341 218.496 240.499 218.445C239.623 218.395 238.41 218.462 237.635 218.58Z" fill="#323232"/>
<path d="M41.8323 250.27C41.5965 249.26 41.5459 247.036 41.4954 234.215L41.428 219.355H50.374V233.625C50.374 242.908 50.4414 248.181 50.5594 248.67C50.6605 249.091 50.9469 249.883 51.2164 250.439C51.486 250.995 52.0251 251.787 52.4295 252.208C52.8338 252.629 53.5414 253.219 53.9963 253.539C54.468 253.859 55.2598 254.28 55.7653 254.449C56.2707 254.634 57.2984 254.819 58.0397 254.87C59.0168 254.92 59.6739 254.87 60.3983 254.651C60.9543 254.499 61.8472 254.129 62.4032 253.842C62.9423 253.539 63.7847 252.882 64.2733 252.376C64.745 251.871 65.3515 251.045 65.5874 250.557C65.8401 250.085 66.1602 249.243 66.295 248.704C66.514 247.878 66.5477 245.654 66.5477 219.355H75.2916L75.2242 249.933L74.7525 251.45C74.4997 252.275 73.9943 253.573 73.6405 254.314C73.2867 255.055 72.5286 256.268 71.9726 257.009C71.4335 257.751 70.5237 258.762 69.9846 259.267C69.4286 259.772 68.4683 260.531 67.8113 260.952C67.1542 261.373 66.1097 261.946 65.4526 262.249C64.7956 262.552 63.7005 262.957 63.0097 263.142C62.319 263.327 61.0049 263.563 60.0951 263.664C58.9495 263.782 57.9723 263.782 56.8098 263.647C55.9169 263.546 54.5354 263.277 53.7436 263.058C52.9517 262.822 51.6208 262.3 50.7952 261.895C49.9529 261.491 48.6724 260.665 47.9312 260.076C47.1899 259.486 46.1959 258.543 45.7241 258.003C45.2524 257.464 44.6459 256.672 44.3595 256.251C44.0731 255.83 43.6013 255.005 43.2981 254.398C42.9948 253.792 42.6073 252.882 42.422 252.376C42.2367 251.871 41.984 250.911 41.8323 250.27Z" fill="#323232"/>
<path d="M122.482 262.973H131.411V219.338H122.482V262.973Z" fill="#323232"/>
<path d="M144.046 262.973V219.254L144.586 219.793C144.889 220.08 150.87 225.572 170.581 243.649L170.666 219.338H179.595V241.038C179.595 252.966 179.561 262.788 179.511 262.856C179.46 262.923 173.412 257.296 152.723 237.736L152.639 262.973H144.046Z" fill="#323232"/>
<path d="M187.513 262.99H216.491V254.398H196.274V244.963H213.121V236.118H196.358L196.274 228.116H216.659V219.355H187.513V262.99Z" fill="#323232"/>
<path fill-rule="evenodd" clip-rule="evenodd" d="M7.58127 263.159L7.59812 219.507L21.9859 219.608L23.3337 220.063C24.075 220.315 25.2544 220.855 25.9451 221.259C26.6359 221.68 27.6636 222.455 28.2195 222.994C28.7923 223.55 29.5842 224.477 29.9885 225.083C30.3929 225.69 30.8983 226.6 31.1173 227.105C31.3532 227.61 31.6733 228.638 31.8586 229.379C32.0608 230.256 32.1787 231.351 32.1787 232.496C32.1787 233.692 32.0776 234.67 31.8586 235.529C31.6733 236.22 31.3363 237.214 31.1005 237.719C30.8646 238.224 30.5445 238.848 30.0728 239.572L30.9825 240.364C31.4879 240.819 32.2124 241.628 32.6167 242.184C33.0042 242.74 33.5939 243.767 33.914 244.458C34.2341 245.149 34.6047 246.21 34.7564 246.817C34.908 247.423 35.0765 248.451 35.127 249.091C35.1944 249.731 35.1607 250.877 35.0596 251.618C34.9585 252.36 34.6721 253.539 34.4363 254.23C34.2004 254.92 33.7624 255.948 33.4423 256.504C33.139 257.06 32.5493 257.936 32.145 258.441C31.7238 258.947 30.8309 259.806 30.1401 260.345C29.4494 260.901 28.3543 261.592 27.7141 261.895C27.057 262.215 25.8946 262.62 25.1027 262.805C23.7549 263.142 23.1316 263.159 7.58127 263.159ZM15.3312 231.873V226.903C15.3312 226.869 16.4431 226.869 17.8078 226.903C19.9137 226.953 20.4191 227.021 21.1267 227.324C21.5985 227.543 22.2892 228.065 22.7272 228.537C23.1821 229.026 23.637 229.733 23.8055 230.222C23.9571 230.694 24.0919 231.401 24.0919 231.822C24.0919 232.244 23.9571 232.968 23.8055 233.423C23.637 233.911 23.1821 234.619 22.7272 235.108C22.2724 235.596 21.5816 236.118 21.0425 236.371C20.217 236.759 19.9305 236.792 15.3143 236.792L15.3312 231.873ZM15.4828 255.662L15.4154 245.132H18.9534C21.5648 245.132 22.7104 245.199 23.3337 245.368C23.7886 245.503 24.4962 245.856 24.8837 246.126C25.2881 246.412 25.8272 246.968 26.0967 247.373C26.3663 247.76 26.7201 248.535 26.8717 249.091C27.0739 249.799 27.1244 250.355 27.0571 250.944C26.9897 251.416 26.7706 252.174 26.5516 252.629C26.3158 253.118 25.7598 253.808 25.2375 254.28C24.7152 254.752 23.9908 255.207 23.5022 255.375C22.8115 255.611 22.0028 255.662 15.4828 255.662Z" fill="#323232"/>
<path d="M26.181 273.015C25.4397 273.133 24.1593 273.436 23.3169 273.689C22.4914 273.924 21.0425 274.48 20.1159 274.918C19.1892 275.356 17.9425 276.047 17.336 276.452C16.7463 276.856 15.6513 277.681 14.9268 278.305C14.2024 278.911 13.2421 279.821 12.804 280.326C12.366 280.849 11.6752 281.708 11.254 282.264C10.8497 282.82 10.2432 283.78 9.90624 284.37C9.56928 284.976 9.01332 286.122 8.69321 286.897C8.37311 287.689 7.90138 289.138 7.64866 290.098C7.29487 291.53 7.19378 292.423 7.12639 294.647C7.059 296.736 7.09269 297.848 7.29487 299.027C7.44649 299.92 7.74975 301.318 7.98562 302.144C8.22148 302.986 8.86169 304.57 9.41766 305.682C9.95678 306.794 10.8665 308.361 11.4562 309.136C12.029 309.928 13.1578 311.225 13.9496 312C14.7583 312.792 16.123 313.92 16.9991 314.51C17.892 315.1 19.2061 315.875 19.9474 316.212C20.6887 316.566 21.9522 317.054 22.7272 317.307C23.5191 317.56 24.6647 317.863 25.2544 317.998C25.8609 318.149 27.5625 318.301 29.0451 318.351C31.0668 318.419 32.145 318.385 33.3412 318.183C34.2341 318.031 35.6324 317.711 36.458 317.475C37.3004 317.239 38.6987 316.7 39.5748 316.279C40.4677 315.858 41.9166 315.032 42.8264 314.443C43.9214 313.718 44.4269 313.28 44.3426 313.145C44.2921 313.028 43.0622 311.562 41.6302 309.894L41.1653 309.352C39.9409 307.926 38.959 306.783 38.884 306.693C38.8166 306.592 38.5471 306.71 38.2101 306.979C37.89 307.232 36.9971 307.737 36.2053 308.108C35.4303 308.462 34.2509 308.9 33.5939 309.068C32.7515 309.304 31.8417 309.372 30.3086 309.372C28.5228 309.355 27.9837 309.287 26.6864 308.9C25.8609 308.647 24.6815 308.192 24.075 307.872C23.4854 307.552 22.5419 306.929 21.9859 306.491C21.43 306.053 20.5539 305.193 20.0485 304.587C19.5262 303.98 18.8354 302.953 18.4985 302.312C18.1615 301.672 17.7235 300.611 17.5213 299.954C17.3192 299.314 17.0833 298.067 16.9822 297.174C16.8474 296.012 16.8474 295.152 16.9991 293.973C17.1001 293.097 17.4034 291.732 17.6898 290.94C17.9594 290.165 18.4311 289.104 18.7344 288.582C19.0376 288.076 19.9642 286.981 20.7898 286.139C21.6321 285.313 22.7272 284.387 23.2326 284.083C23.7549 283.78 24.6141 283.342 25.1701 283.123C25.7261 282.887 26.6864 282.567 27.2761 282.416C28.1184 282.18 28.9777 282.112 30.8983 282.112C33.2738 282.129 33.5265 282.163 35.0259 282.668C35.9189 282.955 37.0308 283.426 37.5194 283.696L38.3954 284.201C39.0731 283.448 40.1681 282.17 41.3314 280.813L41.332 280.812L41.7481 280.326L41.7776 280.292C44.1069 277.563 44.1221 277.546 43.753 277.294C43.5336 277.142 42.8766 276.687 42.2704 276.283C41.6807 275.879 40.5014 275.238 39.659 274.851C38.8335 274.464 37.5362 273.941 36.7949 273.722C36.0536 273.486 34.7395 273.166 33.8466 273.015C32.8526 272.846 31.37 272.762 29.8874 272.762C28.5902 272.779 26.9223 272.897 26.181 273.015Z" fill="#323232"/>
<path fill-rule="evenodd" clip-rule="evenodd" d="M108.818 289.171C109.155 288.531 111.177 284.707 113.3 280.697C115.422 276.687 117.208 273.47 117.259 273.537C117.326 273.621 122.38 283.595 128.513 295.708C134.646 307.822 139.649 317.779 139.649 317.812C139.649 317.863 137.476 317.88 129.962 317.812L129.591 317.054C129.389 316.65 128.783 315.353 128.243 314.19C127.951 313.588 127.622 312.888 127.243 312.084C126.901 311.357 126.519 310.545 126.087 309.641L107.79 309.725L103.663 317.812L98.7434 317.863C96.0478 317.88 93.8239 317.846 93.8239 317.779C93.8239 317.711 94.3462 316.667 94.9695 315.454C95.6097 314.257 96.688 312.202 97.3619 310.905C97.6696 310.327 97.9974 309.705 98.2931 309.145L98.2941 309.143C98.6617 308.446 98.9797 307.843 99.1477 307.535C99.3999 307.046 101.102 303.814 103.103 300.012L103.932 298.438C105.023 296.367 106.083 294.359 106.94 292.737C107.924 290.875 108.638 289.523 108.818 289.171ZM114.765 295.641C113.451 298.252 112.373 300.426 112.373 300.459C112.373 300.51 114.462 300.544 117.006 300.544C119.55 300.544 121.639 300.527 121.639 300.51C121.639 300.493 121.252 299.634 120.78 298.606C120.689 298.41 120.589 298.197 120.485 297.974L120.273 297.519C119.896 296.711 119.498 295.857 119.247 295.321C118.902 294.599 118.382 293.455 118.04 292.702L118.039 292.7L117.966 292.541C117.646 291.8 117.326 291.143 117.259 291.058C117.208 290.974 116.08 293.03 114.765 295.641Z" fill="#323232"/>
<path d="M53.8952 317.896L62.9086 317.812V299.364H79.1665V317.896H87.9272V273.587H79.1665V290.603L62.976 290.519L62.9929 273.587H53.8952V317.896Z" fill="#323232"/>
<path d="M144.03 317.896V273.503L144.67 274.127C145.007 274.464 151.055 279.99 170.901 298.067L170.986 273.587H180.083V295.573C180.083 307.67 180.033 317.593 179.965 317.627C179.898 317.661 173.766 311.949 152.875 292.153L152.79 317.896H144.03Z" fill="#323232"/>
<path d="M215.295 285.735C215.295 292.406 215.244 297.898 215.177 297.932C215.109 297.966 209.078 292.558 201.783 285.886C194.488 279.231 188.44 273.773 188.339 273.773C188.238 273.773 188.187 281.203 188.221 295.793L188.254 317.829H197.015C197.015 298.05 197.049 292.305 197.099 292.288C197.15 292.288 203.03 297.848 210.173 304.637C217.316 311.427 223.365 317.172 223.617 317.408L224.072 317.829L224.055 273.604H215.295V285.735Z" fill="#323232"/>
<path d="M232.311 317.829L232.227 273.604H261.794V282.365H241.071V290.62H258.256V299.381H241.071V308.816H261.457V317.913L232.311 317.829Z" fill="#323232"/>
<path d="M268.718 317.644L293.821 317.728V308.799H277.479V273.587H268.634L268.718 317.644Z" fill="#323232"/>
</svg>
