<svg width="760" height="200" viewBox="0 0 760 200" fill="none" xmlns="http://www.w3.org/2000/svg">
<path fill-rule="evenodd" clip-rule="evenodd" d="M1 0H13.3424V62.9375C13.3424 105.557 13.3917 126.552 13.5234 127.989C13.6057 129.146 13.869 131.277 14.0829 132.73C14.3133 134.184 14.7905 136.596 15.1526 138.099C15.5311 139.602 16.1729 141.832 16.5843 143.055C16.9957 144.277 17.7691 146.325 18.3122 147.597C18.8553 148.869 19.7933 150.885 20.4022 152.058C21.0111 153.23 22.1137 155.18 22.8377 156.352C23.5783 157.525 24.829 159.392 25.6353 160.482C26.4417 161.573 27.7911 163.29 28.6469 164.282C29.5026 165.273 31.1153 167.024 32.2508 168.147C33.3863 169.27 35.0978 170.84 36.0194 171.616C36.9574 172.392 38.6689 173.73 39.8044 174.556C40.9563 175.399 43.0134 176.753 44.3628 177.563C45.7287 178.372 47.901 179.578 49.2175 180.206C50.534 180.85 52.5252 181.742 53.6607 182.205C54.7962 182.651 56.5241 183.279 57.528 183.609C58.5318 183.923 60.5231 184.484 61.9712 184.848C63.4194 185.211 65.5258 185.641 66.6613 185.822C67.7968 186.004 69.4918 186.252 70.4463 186.368C71.516 186.5 74.0503 186.582 77.0289 186.582C79.9417 186.582 82.6077 186.5 83.6938 186.368C84.6812 186.252 86.3926 186.004 87.4788 185.822C88.5649 185.641 90.4903 185.244 91.7575 184.93C93.0246 184.633 95.131 184.038 96.4475 183.592C97.7641 183.163 99.6895 182.469 100.726 182.04C101.763 181.61 103.655 180.735 104.923 180.09C106.19 179.463 107.885 178.554 108.708 178.075C109.53 177.596 111.16 176.539 112.328 175.746C113.496 174.953 115.471 173.499 116.689 172.525C117.907 171.533 120.178 169.469 121.708 167.916C123.255 166.38 125.312 164.1 126.3 162.878C127.271 161.655 128.719 159.689 129.509 158.5C130.299 157.327 131.368 155.642 131.878 154.783C132.372 153.924 133.376 152.025 134.084 150.571C134.791 149.117 135.696 147.102 136.091 146.111C136.486 145.12 137.079 143.435 137.424 142.394C137.77 141.353 138.313 139.454 138.642 138.182C138.955 136.91 139.399 134.795 139.629 133.474C139.86 132.152 140.139 130.302 140.255 129.344C140.386 128.254 140.469 125.66 140.469 122.323C140.469 118.227 140.403 116.525 140.172 114.725C140.008 113.453 139.629 111.156 139.317 109.604C139.004 108.051 138.461 105.788 138.099 104.565C137.737 103.343 137.194 101.625 136.881 100.766C136.568 99.907 136.009 98.4533 135.614 97.5448C135.235 96.6363 134.38 94.8192 133.705 93.4976C133.047 92.1761 131.895 90.0947 131.138 88.8723C130.381 87.6499 129.015 85.6181 128.077 84.3626C127.155 83.1237 125.625 81.224 124.687 80.1503C123.765 79.0931 122.103 77.3751 121.034 76.3344C119.964 75.3102 118.104 73.6748 116.936 72.7332C115.767 71.7751 113.76 70.3049 112.493 69.4625C111.225 68.62 109.366 67.4637 108.378 66.8855C107.391 66.3073 105.68 65.4153 104.594 64.9032C103.507 64.3746 101.697 63.5817 100.562 63.1357C99.4262 62.6897 97.6489 62.0454 96.6121 61.6985C95.5754 61.3681 93.6829 60.8395 92.4157 60.5257C91.1486 60.2118 89.2561 59.8154 88.2193 59.6337C87.1826 59.4519 85.4053 59.2042 84.2698 59.072C83.1343 58.9399 81.0443 58.7581 77.0289 58.5599V46.4184H79.0531C80.1556 46.4184 81.9494 46.501 83.0355 46.5836C84.1217 46.6827 86.1293 46.914 87.4788 47.0957C88.8447 47.2774 90.6878 47.5748 91.5929 47.7565C92.498 47.9382 94.1601 48.3181 95.2956 48.5824C96.4311 48.8633 98.4223 49.4249 99.7388 49.8379C101.055 50.2343 103.425 51.0933 105.005 51.721C106.585 52.3488 109.004 53.406 110.353 54.0667C111.719 54.744 113.645 55.7517 114.632 56.3298C115.619 56.8915 117.693 58.1965 119.24 59.2207C120.787 60.2449 123.222 62.0454 124.67 63.2018C126.283 64.5068 128.587 66.6047 130.611 68.6365C132.421 70.4536 134.462 72.6176 135.153 73.427C135.828 74.2365 136.98 75.6901 137.687 76.6482C138.412 77.6063 139.596 79.2748 140.337 80.365C141.061 81.4553 142.229 83.355 142.937 84.5774C143.661 85.7998 144.846 88.0629 145.587 89.6157C146.327 91.1685 147.282 93.3159 147.709 94.4062C148.137 95.4964 148.894 97.6109 149.388 99.1141C149.882 100.617 150.573 103.029 150.918 104.483C151.281 105.936 151.758 108.2 151.972 109.521C152.202 110.843 152.515 112.99 152.679 114.312C152.91 116.211 152.976 117.962 152.976 122.736C152.976 127.576 152.91 129.245 152.679 131.161C152.515 132.483 152.186 134.597 151.972 135.869C151.741 137.141 151.281 139.371 150.918 140.825C150.573 142.278 149.931 144.541 149.503 145.863C149.092 147.184 148.302 149.365 147.775 150.736C147.249 152.091 146.195 154.469 145.438 156.022C144.681 157.575 143.595 159.656 143.019 160.647C142.46 161.639 141.374 163.39 140.633 164.529C139.893 165.669 138.658 167.42 137.901 168.428C137.144 169.452 135.696 171.236 134.709 172.392C133.721 173.565 131.862 175.548 130.595 176.82C129.328 178.075 127.172 180.057 125.806 181.197C124.44 182.337 122.482 183.89 121.445 184.633C120.408 185.376 118.565 186.615 117.347 187.375C116.129 188.135 114.237 189.258 113.151 189.853C112.065 190.448 110.205 191.373 109.037 191.918C107.868 192.447 106.042 193.239 105.005 193.652C103.968 194.065 102.076 194.743 100.809 195.172C99.5414 195.585 97.3691 196.229 95.9868 196.593C94.6209 196.94 92.4651 197.419 91.2144 197.65C89.9802 197.881 87.8408 198.212 86.4914 198.393C85.1255 198.575 82.4595 198.79 80.5671 198.889C78.1315 199.021 76.1238 199.021 73.7376 198.905C71.878 198.806 69.1627 198.575 67.6816 198.393C66.217 198.212 64.0283 197.865 62.827 197.634C61.6421 197.402 59.618 196.956 58.3508 196.642C57.0837 196.312 55.0101 195.717 53.743 195.304C52.4759 194.891 50.2871 194.115 48.8883 193.553C47.4895 193.008 44.8894 191.835 43.1286 190.943C41.3677 190.068 38.9157 188.73 37.6979 187.986C36.4802 187.243 34.6206 186.037 33.5838 185.31C32.5471 184.567 31.0989 183.51 30.3748 182.932C29.6507 182.37 28.2026 181.181 27.1658 180.289C26.129 179.38 24.3353 177.695 23.1504 176.506C21.982 175.316 20.3199 173.532 19.4642 172.541C18.6084 171.55 17.1603 169.716 16.2387 168.494C15.3171 167.272 14.1323 165.603 13.5892 164.777C13.0626 163.951 12.1081 162.432 11.4828 161.391C10.8739 160.35 9.85358 158.483 9.22824 157.261C8.61935 156.039 7.64842 153.957 7.0889 152.636C6.52938 151.314 5.59136 148.836 5.01538 147.102C4.4394 145.367 3.68241 142.741 3.32036 141.238C2.95832 139.734 2.46463 137.504 2.25069 136.282C2.0203 135.059 1.72408 133.044 1.59243 131.822C1.44432 130.599 1.2633 128.138 1.16456 126.37C1.06583 124.372 1 99.8244 1 61.5664L1 0ZM18.4439 0H30.9508L31.0495 127.94L31.3951 130.005C31.5926 131.144 31.8723 132.598 32.0205 133.226C32.1686 133.87 32.5141 135.175 32.7939 136.117C33.0572 137.075 33.6167 138.71 34.0281 139.751C34.4396 140.808 35.2788 142.658 35.9042 143.881C36.5131 145.12 37.5169 146.904 38.1258 147.845C38.7182 148.803 39.755 150.29 40.4297 151.149C41.088 152.025 42.2728 153.429 43.0463 154.288C43.8362 155.163 45.1527 156.485 45.9755 157.245C46.8148 158.004 48.3124 159.243 49.2998 160.003C50.3036 160.747 51.9163 161.853 52.8873 162.465C53.8582 163.059 55.4874 163.968 56.5077 164.48C57.528 164.992 59.1736 165.719 60.161 166.115C61.1649 166.512 62.827 167.09 63.8637 167.404C64.9005 167.718 66.6778 168.164 67.8133 168.395C68.9488 168.626 70.6438 168.907 71.5983 169.023C72.5857 169.155 74.9554 169.237 77.1112 169.237C79.2341 169.237 81.6532 169.155 82.6241 169.023C83.5786 168.907 85.2407 168.643 86.3268 168.411C87.4129 168.197 89.1244 167.784 90.1118 167.503C91.1157 167.205 92.8436 166.611 93.9791 166.181C95.1146 165.735 96.9577 164.893 98.0932 164.315C99.2287 163.753 100.891 162.811 101.796 162.233C102.701 161.655 104.116 160.697 104.923 160.086C105.745 159.458 107.111 158.335 107.967 157.558C108.823 156.799 110.074 155.576 110.748 154.866C111.423 154.139 112.509 152.883 113.167 152.074C113.809 151.248 114.829 149.877 115.405 149.002C115.981 148.143 116.903 146.656 117.43 145.714C117.973 144.756 118.795 143.088 119.289 141.981C119.766 140.891 120.458 139.156 120.803 138.116C121.165 137.058 121.642 135.456 121.856 134.547C122.087 133.655 122.416 132.053 122.613 131.012C122.794 129.955 123.008 128.287 123.107 127.279C123.206 126.288 123.272 124.355 123.272 123.001C123.272 121.63 123.206 119.697 123.107 118.689C123.008 117.698 122.794 116.03 122.613 114.989C122.449 113.932 122.103 112.329 121.873 111.421C121.642 110.529 121.198 109.042 120.902 108.133C120.589 107.225 119.964 105.59 119.503 104.483C119.026 103.393 118.203 101.691 117.643 100.7C117.084 99.6923 116.146 98.123 115.537 97.2144C114.928 96.3224 113.974 94.9678 113.398 94.2575C112.822 93.5307 111.801 92.3083 111.11 91.5319C110.419 90.772 109.119 89.4835 108.214 88.6576C107.309 87.8481 105.762 86.5597 104.758 85.8163C103.771 85.0729 102.355 84.0983 101.631 83.6523C100.907 83.1898 99.6072 82.4464 98.7515 81.9839C97.8957 81.5213 96.4805 80.8276 95.6247 80.4476C94.769 80.0677 93.2056 79.473 92.1689 79.1096C91.1321 78.7462 89.2725 78.201 88.0547 77.9037C86.837 77.6063 84.9445 77.2264 83.8583 77.0612C82.7722 76.9125 80.8139 76.7308 77.1112 76.5656L77.0289 64.259L77.9834 64.2755C78.4935 64.2755 79.9253 64.3416 81.143 64.4407C82.3608 64.5233 84.1875 64.7215 85.1749 64.8537C86.1787 65.0023 87.9889 65.3327 89.2067 65.597C90.4245 65.8448 92.317 66.3239 93.4031 66.6377C94.4892 66.9516 96.4146 67.5958 97.6818 68.0914C98.9489 68.5704 101.286 69.6111 102.866 70.4041C104.445 71.1805 106.667 72.4194 107.803 73.1297C108.938 73.84 110.715 75.0624 111.752 75.8553C112.789 76.6317 114.319 77.8541 115.126 78.5644C115.948 79.2748 117.314 80.5632 118.17 81.4388C119.026 82.3143 120.375 83.7514 121.149 84.6765C121.922 85.5685 123.008 86.9231 123.551 87.6334C124.094 88.3602 124.983 89.6322 125.526 90.4581C126.069 91.2676 127.04 92.8699 127.698 93.9932C128.34 95.133 129.344 97.0988 129.92 98.3873C130.496 99.6592 131.319 101.642 131.73 102.798C132.142 103.954 132.751 105.821 133.047 106.928C133.359 108.034 133.804 109.835 134.034 110.942C134.248 112.032 134.544 113.7 134.692 114.642C134.824 115.6 135.022 117.533 135.137 118.953C135.252 120.49 135.285 122.72 135.235 124.553C135.17 126.238 135.054 128.32 134.956 129.195C134.857 130.054 134.627 131.64 134.446 132.73C134.265 133.837 133.902 135.654 133.623 136.794C133.343 137.917 132.734 140.048 132.24 141.485C131.763 142.939 130.957 145.103 130.447 146.292C129.92 147.465 129.097 149.216 128.587 150.158C128.077 151.116 127.188 152.685 126.596 153.643C126.02 154.585 125.082 156.006 124.539 156.765C123.979 157.542 122.942 158.913 122.218 159.838C121.494 160.73 119.865 162.547 118.582 163.852C117.314 165.157 115.389 166.991 114.286 167.899C113.2 168.824 111.62 170.063 110.798 170.641C109.958 171.236 108.494 172.227 107.523 172.838C106.535 173.45 104.594 174.54 103.195 175.267C101.796 175.977 99.6072 176.968 98.34 177.464C97.0729 177.976 95.3285 178.604 94.4728 178.884C93.617 179.149 92.1689 179.562 91.2638 179.793C90.3587 180.024 88.8447 180.371 87.8902 180.553C86.9357 180.735 85.3559 181.015 84.352 181.148C83.3153 181.296 80.7316 181.445 78.2631 181.511C75.482 181.561 73.211 181.527 71.7628 181.395C70.5451 181.28 68.4715 181.015 67.155 180.801C65.8385 180.569 63.765 180.14 62.5472 179.826C61.3294 179.512 59.2559 178.884 57.9394 178.438C56.6229 177.992 54.5165 177.166 53.2493 176.605C51.9822 176.043 50.0568 175.102 48.9706 174.507C47.8845 173.896 46.1401 172.855 45.1034 172.178C44.0666 171.484 42.6184 170.493 41.8943 169.931C41.1703 169.386 39.9196 168.378 39.0967 167.685C38.2904 167.007 36.6941 165.521 35.5586 164.381C34.4231 163.241 32.942 161.639 32.2508 160.813C31.5597 160.003 30.4242 158.533 29.7001 157.575C28.9925 156.6 27.9557 155.081 27.3962 154.189C26.8367 153.296 25.9316 151.744 25.3885 150.736C24.8454 149.745 23.9568 147.928 23.4137 146.689C22.8707 145.466 22.0643 143.385 21.62 142.064C21.1592 140.759 20.5338 138.644 20.2047 137.356C19.8756 136.084 19.4642 134.201 19.2667 133.143C19.0857 132.103 18.8224 130.219 18.6907 128.931C18.4768 126.932 18.4439 118.144 18.4439 63.3174V0ZM36.2169 0H48.3946L48.4111 61.1699C48.4111 95.4304 48.4769 123.265 48.5592 124.471C48.6415 125.644 48.8554 127.362 49.0364 128.27C49.2175 129.179 49.596 130.632 49.8757 131.491C50.1555 132.35 50.896 134.101 51.5214 135.373C52.1632 136.645 53.1835 138.396 53.7924 139.255C54.4013 140.114 55.8165 141.75 56.952 142.889C58.0875 144.029 59.7167 145.45 60.5724 146.078C61.4282 146.689 63.1726 147.713 64.4397 148.341C65.7069 148.969 67.4183 149.712 68.2247 149.976C69.0475 150.257 70.4792 150.62 71.4337 150.819C72.3882 151.017 74.0503 151.232 75.1364 151.314C76.3048 151.397 77.9176 151.397 79.086 151.314C80.1721 151.232 81.8013 151.017 82.7064 150.835C83.6115 150.653 85.0597 150.273 85.9154 149.993C86.7711 149.695 88.3674 149.035 89.4536 148.506C90.5397 147.977 92.103 147.102 92.9094 146.54C93.7322 145.995 95.0158 145.004 95.7893 144.343C96.5463 143.682 97.7641 142.477 98.4717 141.651C99.1958 140.825 100.298 139.387 100.94 138.429C101.566 137.471 102.438 135.952 102.882 135.043C103.31 134.134 103.935 132.615 104.248 131.657C104.561 130.698 104.988 129.146 105.202 128.188C105.515 126.684 105.564 125.958 105.581 122.819C105.581 119.945 105.515 118.838 105.285 117.533C105.104 116.624 104.643 114.873 104.248 113.651C103.837 112.428 103.063 110.562 102.52 109.521C101.993 108.48 101.039 106.911 100.43 106.069C99.8211 105.21 98.6692 103.806 97.8464 102.947C97.04 102.088 95.8551 100.948 95.2133 100.436C94.588 99.9235 93.436 99.0811 92.6626 98.5855C91.8891 98.0734 90.6055 97.33 89.7827 96.9336C88.9763 96.5206 87.7914 95.992 87.1496 95.7607C86.5243 95.5295 85.4875 95.1826 84.8457 95.0009C84.2204 94.8192 83.0355 94.5549 82.2127 94.3897C81.4063 94.241 79.9253 94.0758 77.1112 93.9106L77.0783 87.8316C77.0454 83.1072 77.0783 81.7526 77.2428 81.67C77.358 81.6205 78.5594 81.67 79.9088 81.7691C81.2747 81.8682 83.0026 82.0665 83.7761 82.1986C84.5495 82.3308 86.0964 82.6612 87.2319 82.942C88.3674 83.2228 90.1118 83.7514 91.0992 84.1148C92.103 84.4783 93.7981 85.2051 94.8842 85.7172C95.9703 86.2458 97.5666 87.1048 98.4223 87.6334C99.2781 88.1455 100.809 89.1862 101.796 89.9461C102.8 90.6894 104.462 92.11 105.482 93.1012C106.519 94.0923 107.951 95.6121 108.675 96.4711C109.399 97.33 110.617 98.9985 111.406 100.188C112.196 101.361 113.315 103.343 113.924 104.565C114.533 105.788 115.274 107.506 115.603 108.365C115.916 109.224 116.376 110.595 116.607 111.421C116.837 112.247 117.216 113.8 117.43 114.89C117.643 115.98 117.907 117.599 118.006 118.474C118.088 119.366 118.17 121.415 118.17 123.017C118.17 124.636 118.071 126.816 117.94 127.857C117.808 128.898 117.545 130.5 117.364 131.409C117.166 132.317 116.821 133.721 116.59 134.547C116.343 135.373 115.833 136.893 115.422 137.934C115.027 138.974 114.253 140.692 113.727 141.733C113.2 142.774 112.229 144.459 111.588 145.45C110.929 146.441 109.843 147.977 109.152 148.836C108.461 149.695 107.128 151.182 106.173 152.14C105.219 153.098 103.804 154.387 103.03 155.014C102.257 155.626 100.743 156.732 99.6566 157.459C98.5704 158.186 96.5792 159.326 95.2133 160.003C93.8639 160.664 91.6423 161.589 90.2764 162.035C88.9269 162.481 86.9522 163.043 85.9154 163.274C84.8786 163.505 83.0684 163.803 81.8836 163.951C80.7152 164.083 78.5594 164.199 77.1112 164.199C75.663 164.199 73.5401 164.083 72.3882 163.951C71.2362 163.819 69.4589 163.522 68.4386 163.29C67.4183 163.076 65.9866 162.712 65.2625 162.498C64.5384 162.266 63.2055 161.82 62.3004 161.473C61.3953 161.143 59.618 160.334 58.3508 159.673C57.0837 159.029 55.3064 157.988 54.4013 157.393C53.4962 156.782 52.1303 155.774 51.3568 155.163C50.5834 154.552 49.0694 153.148 47.9832 152.058C46.8806 150.967 45.4489 149.365 44.7907 148.506C44.1324 147.647 43.3096 146.524 42.964 146.028C42.6349 145.533 41.9108 144.343 41.3677 143.385C40.8082 142.427 40.0348 140.907 39.6233 139.999C39.2284 139.09 38.6195 137.57 38.2904 136.612C37.9612 135.654 37.4675 134.019 37.2207 132.978C36.9574 131.937 36.6283 130.368 36.4802 129.509C36.3321 128.65 36.151 126.866 36.0687 125.545C35.9536 123.975 35.9536 123.1 36.0687 122.984C36.1675 122.885 36.2333 101.295 36.2169 61.4012V0ZM242.252 46.8479C244.572 46.881 247.534 47.0296 248.835 47.1783C250.151 47.3105 252.257 47.6078 253.525 47.8226C254.792 48.0373 256.717 48.4172 257.803 48.665C258.889 48.8963 260.914 49.4249 262.296 49.8214C263.678 50.2343 265.785 50.9116 266.986 51.3576C268.187 51.8036 269.899 52.4809 270.804 52.8609C271.709 53.2408 273.602 54.1328 275 54.8431C276.416 55.5535 278.407 56.6272 279.444 57.2549C280.497 57.8661 282.422 59.105 283.722 59.9806C285.039 60.8726 286.964 62.2932 288.001 63.1192C289.054 63.9616 290.716 65.3658 291.704 66.2578C292.707 67.1498 293.81 68.174 294.83 69.2312L290.552 73.5261C288.198 75.8884 286.207 77.8046 286.108 77.8046C286.026 77.8046 285.203 77.0777 284.298 76.2022C283.393 75.3267 281.764 73.8896 280.678 73.0306C279.592 72.1551 277.814 70.8501 276.728 70.1232C275.642 69.3799 274.095 68.3887 273.272 67.9097C272.466 67.4306 270.87 66.5716 269.734 65.9935C268.615 65.4318 266.756 64.5728 265.62 64.0938C264.501 63.6147 262.576 62.9044 261.341 62.4914C260.124 62.095 258.083 61.5168 256.816 61.203C255.549 60.8891 253.706 60.4761 252.702 60.3109C251.714 60.1292 249.937 59.8649 248.752 59.7162C247.584 59.5841 245.066 59.4189 243.157 59.3693C241.084 59.3033 238.697 59.3363 237.15 59.4685C235.752 59.5676 233.563 59.7988 232.296 59.9806C231.029 60.1788 229.153 60.5092 228.099 60.7239C227.063 60.9387 225.154 61.4177 223.87 61.7811C222.586 62.1445 220.694 62.7557 219.674 63.1357C218.653 63.4991 216.744 64.292 215.428 64.8702C214.128 65.4483 211.906 66.5551 210.491 67.3315C209.092 68.1244 207.052 69.3633 205.965 70.0902C204.879 70.817 203.398 71.8742 202.674 72.4194C201.95 72.981 200.847 73.873 200.206 74.4182C199.58 74.9633 198.363 76.0536 197.49 76.8465C196.635 77.6229 195.153 79.1426 194.199 80.2163C193.261 81.2736 191.928 82.8264 191.27 83.6523C190.611 84.4783 189.427 86.1302 188.62 87.303C187.83 88.4924 186.728 90.2434 186.185 91.185C185.642 92.1431 184.868 93.5968 184.457 94.4062C184.045 95.2321 183.387 96.6858 182.976 97.6274C182.564 98.5855 181.955 100.105 181.626 101.014C181.281 101.922 180.688 103.789 180.293 105.144C179.915 106.515 179.355 108.778 179.092 110.182C178.812 111.602 178.45 113.717 178.302 114.89C178.072 116.591 178.006 118.26 178.006 122.654C177.989 127.196 178.055 128.716 178.302 130.5C178.467 131.739 178.779 133.705 179.01 134.878C179.224 136.067 179.635 137.884 179.915 138.925C180.178 139.982 180.672 141.651 180.984 142.642C181.314 143.649 181.939 145.4 182.383 146.524C182.828 147.663 183.749 149.712 184.407 151.066C185.082 152.438 186.201 154.519 186.909 155.708C187.616 156.881 188.719 158.599 189.344 159.508C189.97 160.416 191.237 162.085 192.142 163.208C193.047 164.348 195.038 166.545 196.585 168.098C198.132 169.65 200.239 171.616 201.275 172.459C202.329 173.301 203.875 174.507 204.731 175.118C205.603 175.729 207.101 176.72 208.072 177.315C209.043 177.926 210.754 178.901 211.857 179.479C212.959 180.057 214.605 180.867 215.51 181.28C216.415 181.676 218.16 182.386 219.377 182.832C220.612 183.295 222.685 183.972 223.985 184.336C225.302 184.683 227.309 185.178 228.428 185.409C229.564 185.641 231.72 186.004 233.201 186.202C235.538 186.533 236.657 186.582 241.1 186.582C245.148 186.582 246.794 186.516 248.588 186.285C249.855 186.12 251.862 185.806 253.031 185.575C254.216 185.36 256.141 184.914 257.31 184.617C258.494 184.303 260.568 183.658 261.917 183.196C263.283 182.733 265.472 181.858 266.772 181.28C268.089 180.702 270.096 179.727 271.215 179.099C272.351 178.488 274.013 177.513 274.918 176.952C275.823 176.374 277.386 175.316 278.374 174.606C279.378 173.879 280.826 172.772 281.583 172.128C282.356 171.484 283.689 170.295 286.108 168.031L294.83 176.77L293.283 178.207C292.428 179 291.095 180.206 290.321 180.867C289.548 181.544 288.067 182.733 287.014 183.526C285.977 184.303 284.167 185.591 282.982 186.368C281.813 187.144 280.036 188.251 279.032 188.829C278.045 189.407 275.889 190.514 274.26 191.307C272.631 192.1 270.409 193.107 269.323 193.537C268.237 193.966 266.163 194.71 264.715 195.189C263.267 195.668 260.897 196.362 259.449 196.725C258.001 197.072 255.746 197.567 254.43 197.799C253.13 198.047 251.089 198.344 249.904 198.476C248.736 198.625 246.284 198.806 244.474 198.905C242.137 199.038 240.195 199.021 237.726 198.905C235.834 198.806 233.086 198.575 231.637 198.393C230.189 198.212 227.573 197.766 225.795 197.402C224.035 197.055 221.451 196.428 220.036 196.015C218.637 195.618 216.53 194.941 215.346 194.528C214.177 194.098 212.351 193.388 211.281 192.942C210.211 192.496 208.154 191.538 206.706 190.795C205.258 190.068 203.25 188.994 202.23 188.383C201.209 187.772 199.301 186.549 197.984 185.657C196.684 184.765 194.791 183.394 193.788 182.601C192.8 181.808 191.171 180.437 190.167 179.562C189.18 178.67 187.551 177.117 186.547 176.076C185.543 175.052 184.095 173.45 183.321 172.541C182.548 171.633 181.215 169.964 180.359 168.824C179.503 167.701 178.22 165.867 177.512 164.777C176.788 163.703 175.702 161.903 175.077 160.813C174.451 159.739 173.398 157.724 172.74 156.352C172.081 154.998 171.045 152.652 170.452 151.149C169.876 149.662 169.086 147.465 168.708 146.276C168.329 145.103 167.704 142.79 167.293 141.155C166.898 139.52 166.388 137.108 166.157 135.786C165.943 134.481 165.631 132.202 165.466 130.748C165.252 128.815 165.186 126.783 165.186 123.067C165.17 119.416 165.252 117.335 165.466 115.468C165.614 114.064 165.927 111.801 166.157 110.43C166.388 109.075 166.898 106.614 167.293 104.978C167.704 103.343 168.395 100.898 168.84 99.5271C169.284 98.1725 170.041 96.0581 170.518 94.8192C171.012 93.5968 172.081 91.218 172.904 89.5331C173.727 87.8647 174.912 85.6346 175.537 84.5774C176.146 83.5367 177.167 81.9013 177.808 80.9432C178.434 80.0016 179.503 78.4653 180.195 77.5568C180.869 76.6482 182.136 75.0624 182.992 74.0052C183.864 72.9645 185.806 70.8831 187.287 69.3799C188.785 67.8601 190.793 65.9604 191.731 65.151C192.685 64.3416 194.347 63.0035 195.433 62.1776C196.519 61.3681 198.198 60.1623 199.136 59.5345C200.09 58.8903 201.72 57.8661 202.756 57.2549C203.81 56.6272 206.031 55.4378 207.693 54.6119C209.372 53.7859 211.742 52.7122 212.959 52.2331C214.194 51.7376 216.267 50.9942 217.567 50.5482C218.884 50.1187 221.188 49.4579 222.669 49.0945C224.166 48.7146 226.388 48.2355 227.606 48.0043C228.84 47.7895 230.798 47.4922 231.967 47.3435C233.151 47.1948 234.995 46.9966 236.081 46.9305C237.167 46.8479 239.948 46.8149 242.252 46.8479ZM242.252 64.3581C244.293 64.3911 246.893 64.5233 248.012 64.672C249.147 64.8041 250.924 65.0684 251.961 65.2666C253.014 65.4483 254.841 65.8613 256.042 66.1752C257.244 66.489 259.136 67.0507 260.239 67.4306C261.341 67.7941 263.283 68.5539 264.55 69.099C265.818 69.6277 267.644 70.4866 268.582 70.9987C269.537 71.5108 271.166 72.4524 272.203 73.0966C273.256 73.7409 274.951 74.8972 275.988 75.6736C277.041 76.45 278.67 77.7715 279.608 78.5975C280.563 79.4234 281.632 80.3981 282.653 81.4388L280.941 83.2228C279.987 84.1974 278.028 86.1962 273.931 90.359L272.532 89.054C271.775 88.3272 270.623 87.3195 269.981 86.8074C269.356 86.2953 267.908 85.2546 266.772 84.4948C265.653 83.7349 263.876 82.6777 262.823 82.1326C261.786 81.5874 260.305 80.8606 259.531 80.5302C258.774 80.1998 257.392 79.6712 256.487 79.3574C255.582 79.0435 254.002 78.5644 252.949 78.3001C251.912 78.0358 250.167 77.6889 249.081 77.5072C247.995 77.3255 245.856 77.0943 244.309 76.9786C242.203 76.8465 240.853 76.8465 238.796 76.9786C237.315 77.0943 235.192 77.3255 234.106 77.5072C233.02 77.6889 231.292 78.0358 230.239 78.3001C229.202 78.5644 227.507 79.0765 226.454 79.44C225.417 79.8034 223.936 80.365 223.162 80.6954C222.405 81.0258 220.924 81.7526 219.871 82.2977C218.834 82.8429 217.057 83.9001 215.922 84.66C214.803 85.4198 213.173 86.5927 212.301 87.303C211.445 87.9968 210.014 89.2853 209.125 90.1773C208.236 91.0528 207.035 92.2917 206.476 92.9195C205.916 93.5637 204.994 94.6705 204.451 95.3973C203.908 96.1242 203.053 97.3631 202.559 98.123C202.049 98.8994 201.292 100.204 200.847 101.014C200.403 101.84 199.679 103.293 199.235 104.235C198.807 105.193 198.05 107.175 197.573 108.613C197.095 110.066 196.519 112.148 196.289 113.238C196.059 114.328 195.746 116.195 195.581 117.368C195.4 118.805 195.318 120.688 195.318 122.984C195.318 125.231 195.4 127.196 195.581 128.518C195.729 129.658 195.993 131.326 196.174 132.235C196.371 133.143 196.75 134.713 197.03 135.704C197.309 136.711 197.935 138.562 198.428 139.833C198.922 141.122 199.811 143.088 200.403 144.211C200.996 145.351 202.082 147.217 202.839 148.341C203.579 149.481 204.813 151.199 205.57 152.14C206.327 153.098 207.841 154.767 208.928 155.857C210.03 156.947 211.692 158.467 212.63 159.243C213.585 160.003 215.247 161.226 216.333 161.936C217.419 162.663 219.641 163.902 221.27 164.711C223.08 165.603 225.203 166.495 226.701 166.991C228.066 167.453 230.025 168.015 231.062 168.246C232.115 168.477 233.744 168.791 234.682 168.94C236.031 169.171 237.463 169.237 241.182 169.237C244.984 169.237 246.35 169.188 247.847 168.957C248.9 168.791 250.53 168.477 251.468 168.246C252.422 168.015 253.87 167.635 254.677 167.404C255.499 167.156 257.129 166.578 258.297 166.115C259.482 165.636 261.111 164.909 261.917 164.496C262.74 164.083 264.106 163.324 264.962 162.811C265.834 162.283 267.085 161.457 267.759 160.978C268.451 160.499 269.487 159.722 270.063 159.26C270.656 158.781 271.775 157.823 273.931 155.807L282.653 164.562L281.665 165.471C281.122 165.967 280.052 166.908 279.279 167.569C278.522 168.23 277.288 169.221 276.564 169.766C275.84 170.311 274.589 171.203 273.766 171.748C272.96 172.293 271.627 173.136 270.804 173.615C269.998 174.094 268.434 174.936 267.348 175.482C266.262 176.027 264.485 176.836 263.398 177.282C262.312 177.728 260.436 178.422 259.202 178.818C257.984 179.215 256.059 179.76 254.923 180.041C253.804 180.322 251.978 180.702 250.892 180.883C249.805 181.048 248.143 181.296 247.189 181.412C246.169 181.544 243.684 181.627 241.018 181.627C238.335 181.627 235.867 181.544 234.764 181.412C233.777 181.296 231.967 181.015 230.732 180.784C229.515 180.569 227.622 180.156 226.536 179.876C225.45 179.611 223.673 179.083 222.586 178.719C221.5 178.356 219.838 177.745 218.884 177.348C217.946 176.952 216.251 176.175 215.148 175.63C214.046 175.069 212.334 174.143 211.363 173.565C210.392 172.971 208.779 171.93 207.776 171.22C206.788 170.526 205.192 169.303 204.237 168.527C203.299 167.751 201.473 166.066 200.206 164.794C198.922 163.522 197.326 161.804 196.651 160.978C195.976 160.168 194.857 158.748 194.199 157.839C193.524 156.931 192.389 155.262 191.681 154.122C190.974 152.999 189.854 150.984 189.196 149.662C188.522 148.357 187.633 146.425 187.205 145.367C186.777 144.327 186.218 142.84 185.954 142.064C185.691 141.304 185.214 139.767 184.918 138.677C184.605 137.587 184.161 135.786 183.93 134.68C183.7 133.573 183.354 131.491 183.173 130.054C182.992 128.617 182.795 126.073 182.745 124.388C182.679 122.571 182.712 120.308 182.828 118.772C182.943 117.368 183.173 115.286 183.338 114.146C183.519 113.023 183.831 111.239 184.062 110.182C184.292 109.141 184.737 107.357 185.066 106.217C185.395 105.094 186.086 103.079 186.58 101.757C187.09 100.452 187.962 98.4038 188.538 97.2144C189.114 96.0416 190.151 94.1088 190.858 92.9195C191.566 91.7466 192.701 89.9956 193.376 89.0375C194.051 88.0959 195.318 86.4605 196.19 85.4033C197.079 84.3626 198.889 82.4299 200.239 81.1084C201.572 79.8034 203.382 78.1515 204.237 77.4577C205.11 76.7639 206.624 75.6241 207.611 74.9137C208.615 74.2199 210.228 73.1792 211.199 72.5846C212.169 72.0064 213.766 71.1309 214.737 70.6518C215.708 70.1563 217.32 69.4129 218.308 68.9834C219.312 68.5539 221.204 67.8436 222.504 67.3976C223.821 66.9681 225.779 66.3734 226.865 66.1091C227.951 65.8283 229.877 65.4153 231.144 65.2006C232.411 64.9693 234.303 64.705 235.34 64.6059C236.393 64.5068 237.529 64.4077 237.891 64.3581C238.253 64.3251 240.228 64.3251 242.252 64.3581ZM242.581 81.9013C243.536 81.9343 245.198 82.0665 246.284 82.2151C247.37 82.3473 249.114 82.6446 250.151 82.8759C251.204 83.1072 252.866 83.5532 253.854 83.8836C254.858 84.1974 256.454 84.7921 257.392 85.1886C258.346 85.6015 259.762 86.2623 260.519 86.6753C261.292 87.0883 262.855 88.0464 263.974 88.7897C265.11 89.5496 266.854 90.8711 267.842 91.7301C268.846 92.5891 269.784 93.4316 269.948 93.5967C270.211 93.9106 270.063 94.0758 261.522 102.666L260.65 101.84C260.173 101.394 259.449 100.749 259.038 100.419C258.643 100.089 257.754 99.4445 257.063 98.9985C256.388 98.5359 255.022 97.7595 254.018 97.264C253.031 96.7684 251.583 96.1242 250.809 95.8599C250.052 95.579 248.571 95.1661 247.518 94.9348C246.481 94.7035 244.671 94.4227 243.486 94.3236C241.89 94.1749 240.787 94.1749 239.125 94.3236C237.907 94.4227 236.212 94.654 235.34 94.8357C234.484 95.0174 233.003 95.4304 232.049 95.7607C231.111 96.0746 229.482 96.7684 228.428 97.3135C227.392 97.8421 225.878 98.7507 225.055 99.3123C224.232 99.907 222.603 101.328 221.352 102.583C220.134 103.822 218.637 105.523 218.028 106.399C217.419 107.258 216.399 108.992 215.757 110.264C215.132 111.536 214.391 113.287 214.111 114.146C213.832 115.022 213.453 116.459 213.256 117.368C212.943 118.821 212.894 119.532 212.894 122.984C212.894 126.503 212.943 127.163 213.272 128.683C213.47 129.641 213.897 131.211 214.227 132.152C214.539 133.11 215.148 134.63 215.592 135.539C216.037 136.447 216.843 137.901 217.419 138.76C217.979 139.635 218.9 140.891 219.476 141.568C220.052 142.262 221.023 143.302 221.632 143.897C222.257 144.492 223.129 145.285 223.574 145.648C224.035 146.028 225.038 146.738 225.795 147.234C226.569 147.746 228.05 148.572 229.087 149.068C230.14 149.563 231.687 150.207 232.543 150.488C233.415 150.769 234.929 151.166 235.916 151.364C237.463 151.678 238.269 151.727 241.265 151.727C244.325 151.727 245.066 151.678 246.695 151.347C247.748 151.132 249.378 150.703 250.316 150.389C251.27 150.075 253.014 149.348 254.183 148.754C255.368 148.159 256.997 147.201 257.803 146.623C258.626 146.028 259.794 145.087 261.539 143.468L270.228 152.223L269.784 152.702C269.537 152.966 268.632 153.776 267.759 154.502C266.904 155.229 265.538 156.286 264.715 156.848C263.909 157.426 262.493 158.318 261.588 158.847C260.683 159.375 259.054 160.218 257.968 160.697C256.882 161.193 255.154 161.87 254.101 162.217C253.064 162.564 251.583 163.01 250.809 163.191C250.052 163.39 248.522 163.703 247.436 163.885C246.037 164.149 244.474 164.265 242.005 164.331C239.405 164.397 237.99 164.348 236.245 164.133C234.978 163.984 233.102 163.687 232.049 163.439C231.012 163.208 229.169 162.696 227.935 162.283C226.717 161.886 224.528 160.961 223.08 160.251C221.632 159.541 219.558 158.368 218.472 157.641C217.386 156.914 215.806 155.725 214.934 154.998C214.078 154.271 212.564 152.834 211.577 151.793C210.59 150.769 209.191 149.101 208.45 148.093C207.71 147.102 206.755 145.731 206.311 145.037C205.883 144.36 204.978 142.691 204.32 141.32C203.661 139.966 202.773 137.884 202.378 136.695C201.983 135.522 201.456 133.771 201.226 132.813C200.996 131.871 200.699 130.385 200.551 129.509C200.42 128.65 200.222 126.833 200.14 125.462C200.025 123.827 200.025 122.158 200.14 120.506C200.222 119.152 200.452 117.186 200.633 116.129C200.798 115.088 201.127 113.535 201.358 112.66C201.572 111.801 202.016 110.347 202.329 109.438C202.641 108.53 203.201 107.093 203.579 106.217C203.958 105.358 204.583 104.053 204.978 103.326C205.373 102.6 206.163 101.311 206.722 100.436C207.282 99.5766 208.302 98.1725 208.977 97.297C209.668 96.438 211.083 94.8852 212.137 93.828C213.19 92.7873 214.786 91.3667 215.691 90.6729C216.596 89.9956 217.962 89.0045 218.719 88.5089C219.493 88.0133 220.826 87.2204 221.681 86.7579C222.554 86.2953 224.035 85.6015 224.973 85.1886C225.927 84.7921 227.523 84.1974 228.511 83.8836C229.515 83.5532 231.177 83.1072 232.213 82.8759C233.267 82.6446 234.698 82.3638 235.422 82.2647C236.147 82.1491 237.677 82.0169 238.796 81.9508C239.932 81.9013 241.643 81.8682 242.581 81.9013Z" fill="#D91312"/>
<path d="M731.016 46.5651C729.89 46.745 728.33 47.1046 727.563 47.3615C726.796 47.6184 725.466 48.1578 724.621 48.5945C723.777 49.0055 722.447 49.8018 721.68 50.3156C720.913 50.8294 719.583 52.011 718.739 52.9101C717.895 53.8092 716.769 55.2991 716.258 56.2239C715.721 57.1486 715.055 58.5872 714.774 59.4349C714.493 60.2826 714.135 61.7982 713.981 62.7743C713.802 64.0331 713.828 65.4459 714.007 67.3982C714.186 69.145 714.57 70.9431 714.979 72.1505C715.362 73.2037 716.079 74.745 716.565 75.567C717.051 76.389 718.022 77.7248 718.739 78.4954C719.429 79.2918 720.708 80.4221 721.552 81.0386C722.396 81.6294 724.008 82.6055 725.133 83.1707C726.258 83.7615 728.458 84.6349 729.993 85.1487C731.527 85.6367 732.934 85.9964 733.062 85.945C733.19 85.8936 734.06 86.1248 734.98 86.4588C735.901 86.7927 737.513 87.5377 738.561 88.0771C739.61 88.6422 741.068 89.5927 741.758 90.2092C742.475 90.8257 743.344 91.9303 743.753 92.7267C744.137 93.4973 744.444 94.3964 744.444 94.756C744.444 95.1156 744.265 96.0404 744.035 96.8111C743.728 97.9156 743.319 98.5322 742.244 99.5597C741.17 100.613 740.531 101.024 739.38 101.332C738.254 101.666 737.308 101.717 735.236 101.615C733.753 101.538 731.732 101.255 730.76 100.973C729.788 100.716 728.279 100.202 727.435 99.8423C726.591 99.5083 725.082 98.6863 724.11 98.0698C723.138 97.4276 721.654 96.2973 720.836 95.578L719.378 94.2422L709.71 103.362C711.168 104.877 712.447 106.033 713.495 106.906C714.544 107.754 716.053 108.859 716.82 109.373C717.588 109.861 719.097 110.708 720.145 111.222C721.194 111.762 723.675 112.815 725.645 113.611C727.614 114.382 730.095 115.204 731.144 115.461C732.397 115.717 734.264 115.872 736.515 115.872C739.201 115.897 740.403 115.769 741.886 115.384C742.935 115.075 744.623 114.484 745.595 114.022C746.567 113.585 748.076 112.712 748.92 112.121C749.764 111.505 751.145 110.272 751.989 109.373C752.833 108.448 754.01 106.906 754.598 105.93C755.187 104.928 756.031 103.028 756.491 101.692C757.13 99.7909 757.335 98.6606 757.437 96.5542C757.54 94.345 757.463 93.4716 757.003 91.6734C756.696 90.4661 756.056 88.6679 755.57 87.6918C755.11 86.6899 754.163 85.1487 753.473 84.2239C752.782 83.2991 751.299 81.7835 750.173 80.8588C749.074 79.934 747.462 78.701 746.618 78.1101C745.774 77.545 743.984 76.5432 742.654 75.8753C741.324 75.2331 739.124 74.3597 737.794 73.9487C736.67 73.6014 735.017 73.1075 733.806 72.7457L733.19 72.5615C731.988 72.2276 730.428 71.534 729.737 71.0459C728.842 70.4294 728.253 69.7615 727.742 68.7853C727.205 67.7321 727.026 67.0386 727.051 65.9083C727.051 65.0092 727.23 64.0844 727.537 63.4679C727.793 62.9541 728.458 62.2092 728.995 61.8239C729.558 61.4386 730.683 60.8734 731.527 60.5652C732.832 60.1028 733.42 60.0514 735.492 60.1541C736.899 60.2312 738.664 60.5395 739.712 60.8477C740.684 61.156 742.142 61.7468 742.909 62.1321C743.677 62.5175 745.339 63.4936 746.618 64.2899C747.897 65.0863 748.971 65.7542 749.048 65.7542C749.125 65.7542 749.866 64.6239 750.736 63.2367C751.283 62.3383 752.119 60.9874 752.912 59.7073C753.343 59.0109 753.761 58.3354 754.112 57.7652C755.11 56.1468 755.954 54.6826 755.954 54.5541C755.954 54.4 754.726 53.4752 753.217 52.4734C751.682 51.4459 749.764 50.2642 748.92 49.8018C748.076 49.3651 746.413 48.6459 745.211 48.2349C744.009 47.7982 742.296 47.2844 741.375 47.1046C740.454 46.8991 738.689 46.6165 737.41 46.4624C736.131 46.334 734.648 46.2312 734.085 46.2312C733.522 46.2569 732.141 46.411 731.016 46.5651Z" fill="#323232"/>
<path d="M454.779 46.745C453.781 46.8734 452.196 47.2073 451.198 47.5156C450.201 47.7982 448.436 48.5431 447.259 49.1083C446.083 49.6991 444.343 50.8294 443.371 51.6C442.425 52.3707 441.095 53.7064 440.43 54.5541C439.765 55.4019 438.844 56.8918 438.409 57.8936C437.949 58.8697 437.361 60.6165 437.13 61.7468C436.772 63.3395 436.696 64.4184 436.823 66.4991C436.926 67.989 437.182 69.9413 437.386 70.8661C437.616 71.7909 438.23 73.4606 438.767 74.5909C439.458 76.0294 440.328 77.2624 441.632 78.6753C442.681 79.7799 444.215 81.167 445.059 81.7321C445.903 82.323 447.617 83.2734 448.896 83.8643C450.175 84.4808 452.221 85.2514 453.5 85.5854C454.779 85.945 456.365 86.356 457.081 86.5101C457.771 86.6643 459.46 87.3578 460.79 88.0257C462.35 88.7964 463.757 89.7468 464.729 90.6459C465.547 91.4166 466.468 92.5211 466.749 93.0863C467.056 93.7285 467.235 94.6019 467.235 95.3982C467.21 96.2202 466.979 97.145 466.596 97.967C466.238 98.6606 465.445 99.6881 464.856 100.228C464.166 100.818 463.168 101.358 462.324 101.615C461.25 101.923 460.252 101.974 458.104 101.872C456.16 101.795 454.6 101.538 453.04 101.075C451.812 100.716 450.098 100.048 449.203 99.6111C448.333 99.1487 447.106 98.4551 446.466 98.0184C445.827 97.5817 444.65 96.5799 443.857 95.8092L442.374 94.3707C438.296 98.2767 436.065 100.38 434.897 101.481L434.897 101.481L434.896 101.483C434.636 101.728 434.429 101.923 434.266 102.077L432.603 103.618C435.238 106.213 436.9 107.626 437.974 108.422C439.049 109.244 441.044 110.477 442.374 111.171C443.704 111.864 445.776 112.789 446.978 113.2C448.18 113.611 450.303 114.202 451.71 114.51C453.116 114.818 455.879 115.178 457.848 115.306C460.125 115.435 462.171 115.435 463.475 115.255C464.601 115.127 466.442 114.664 467.568 114.253C468.693 113.842 470.304 113.046 471.148 112.481C471.993 111.941 473.553 110.58 474.601 109.475C475.676 108.371 477.031 106.65 477.62 105.673C478.208 104.672 479.052 102.771 479.512 101.435C480.228 99.2771 480.305 98.6606 480.331 96.0404C480.331 93.9854 480.177 92.5725 479.87 91.4166C479.615 90.4918 479.103 89.0533 478.719 88.2055C478.336 87.3578 477.568 85.9707 476.98 85.123C476.417 84.2753 475.087 82.7854 474.064 81.8092C473.016 80.8074 471.148 79.3432 469.87 78.4954C468.591 77.6734 466.698 76.5688 465.649 76.0808C464.601 75.567 463.092 74.9505 462.324 74.6679C461.557 74.411 459.69 73.8459 458.155 73.4092C456.646 72.9982 454.83 72.3817 454.139 72.022C453.423 71.6624 452.477 71.0459 452.017 70.6606C451.582 70.2496 451.019 69.4789 450.789 68.9138C450.559 68.3743 450.277 67.2698 450.201 66.4991C450.047 65.3175 450.124 64.9064 450.61 63.9303C450.993 63.1853 451.633 62.4918 452.477 61.9266C453.167 61.4642 454.395 60.8991 455.163 60.6679C456.211 60.3597 457.158 60.3083 458.871 60.411C460.304 60.5138 461.941 60.822 463.219 61.233C464.345 61.6184 465.624 62.1064 466.033 62.3119C466.442 62.5431 467.951 63.4679 469.358 64.3413C470.765 65.2404 472.044 65.9853 472.172 65.9853C472.299 65.9853 472.913 65.2147 473.476 64.2642C473.831 63.6749 474.531 62.5238 475.312 61.2406L475.324 61.221C475.833 60.3843 476.375 59.4925 476.878 58.6642C478.157 56.5321 479.18 54.734 479.154 54.6569C479.103 54.5541 478.106 53.8092 476.903 53.0129C475.701 52.2165 473.706 50.9835 472.427 50.2899C471.148 49.622 469.102 48.7229 467.823 48.2862C466.545 47.8752 464.549 47.3358 463.347 47.1303C462.145 46.9248 460.15 46.7193 458.871 46.6422C457.592 46.5651 455.776 46.6165 454.779 46.745Z" fill="#323232"/>
<path d="M668.607 47.8239C669.732 47.4642 671.574 47.0018 672.699 46.822C673.876 46.6422 675.717 46.5395 677.047 46.6165C678.326 46.6936 680.321 46.9248 681.523 47.1303C682.726 47.3101 684.669 47.8239 685.872 48.2092C687.074 48.6202 688.992 49.4422 690.143 50.0074C691.32 50.5982 693.391 51.8312 694.747 52.756C696.128 53.6807 697.356 54.4514 697.484 54.5028C697.612 54.5285 696.742 56.1211 695.591 58.022C694.414 59.923 692.854 62.4918 692.112 63.7248C691.345 64.9835 690.68 65.9853 690.603 65.9853C690.527 65.9853 689.58 65.3431 688.48 64.5468C687.406 63.7248 685.488 62.5945 684.209 61.978C682.93 61.3872 680.986 60.6936 679.861 60.4624C678.48 60.1541 677.15 60.0514 675.768 60.1285C674.004 60.2312 673.466 60.3597 671.829 61.2587C670.525 61.9523 669.783 62.5431 669.425 63.1597C669.118 63.6477 668.837 64.5725 668.786 65.2147C668.709 65.8569 668.863 67.0129 669.067 67.7835C669.374 68.8624 669.732 69.4532 670.627 70.2753C671.267 70.8918 672.341 71.611 673.006 71.9193C673.697 72.2019 675.103 72.6642 676.152 72.9468C677.201 73.2294 678.991 73.7688 680.117 74.1285C681.242 74.4881 683.442 75.4386 684.976 76.2092C686.511 77.0055 688.89 78.4698 690.22 79.4973C691.55 80.4991 693.212 81.9633 693.928 82.734C694.619 83.4789 695.668 84.8147 696.205 85.6367C696.768 86.4844 697.484 87.8202 697.791 88.5909C698.098 89.3615 698.558 90.7487 698.788 91.6734C699.044 92.6753 699.197 94.3193 699.197 95.7835C699.197 97.3762 698.993 98.9432 698.66 100.279C698.379 101.409 697.816 103.028 697.433 103.875C697.023 104.723 696.256 106.11 695.668 106.958C695.105 107.806 693.724 109.373 692.598 110.426C691.115 111.839 689.938 112.686 688.174 113.585C686.844 114.253 684.823 115.05 683.697 115.358C682.112 115.769 680.884 115.897 678.326 115.897C676.203 115.897 674.183 115.743 672.699 115.461C671.42 115.204 668.965 114.484 667.2 113.842C665.435 113.2 662.98 112.173 661.701 111.53C660.422 110.888 658.708 109.912 657.864 109.347C657.02 108.756 655.818 107.883 655.179 107.369C654.539 106.881 653.414 105.879 652.672 105.16C651.93 104.466 651.316 103.798 651.342 103.67C651.342 103.567 653.465 101.461 660.806 94.4991L662.647 96.1175C663.67 96.9909 665.205 98.1468 666.049 98.6606C666.893 99.1744 668.325 99.8936 669.246 100.253C670.167 100.613 671.599 101.101 672.443 101.358C673.594 101.692 674.873 101.82 677.431 101.82C680.449 101.82 681.012 101.743 681.907 101.281C682.47 100.973 683.314 100.33 683.8 99.8679C684.26 99.3799 684.9 98.5322 685.155 97.967C685.437 97.4019 685.744 96.4257 685.82 95.7835C685.923 94.8844 685.82 94.3193 685.309 93.2147C684.9 92.3156 684.132 91.3395 683.288 90.5689C682.521 89.901 681.037 88.8991 679.989 88.334C678.94 87.7945 677.329 87.0496 676.408 86.6899C675.487 86.3303 674.694 86.0991 674.617 86.1762C674.541 86.2533 673.466 85.9964 672.188 85.6367C670.909 85.2514 669.195 84.6606 668.351 84.301C667.507 83.9413 665.844 83.0679 664.642 82.3487C663.363 81.578 661.726 80.2936 660.678 79.2147C659.706 78.1872 658.504 76.7487 658.043 75.978C657.608 75.2074 656.867 73.5376 656.406 72.2789C655.716 70.2496 655.588 69.556 655.485 66.4991C655.409 64.2642 655.485 62.5175 655.69 61.6184C655.869 60.8477 656.33 59.3835 656.764 58.4074C657.174 57.4055 658.018 55.9156 658.606 55.0679C659.22 54.2202 660.396 52.9101 661.215 52.1395C662.033 51.3945 663.594 50.2642 664.642 49.6477C665.691 49.0312 667.481 48.2092 668.607 47.8239Z" fill="#323232"/>
<path d="M374.926 70.6606C375.003 90.2092 375.079 93.6 375.437 95.1413C375.668 96.1175 376.051 97.5817 376.333 98.3523C376.614 99.123 377.202 100.51 377.663 101.435C378.123 102.36 378.839 103.618 379.274 104.261C379.709 104.903 380.63 106.11 381.346 106.932C382.062 107.754 383.571 109.193 384.697 110.092C385.822 110.991 387.766 112.25 389.045 112.866C390.298 113.483 392.319 114.279 393.521 114.639C394.723 114.973 396.82 115.384 398.176 115.538C399.941 115.743 401.424 115.743 403.163 115.563C404.545 115.409 406.54 115.05 407.588 114.767C408.637 114.484 410.3 113.868 411.297 113.406C412.295 112.943 413.88 112.07 414.878 111.428C415.876 110.785 417.333 109.629 418.177 108.859C418.996 108.088 420.377 106.547 421.196 105.417C422.04 104.286 423.191 102.437 423.728 101.306C424.265 100.176 425.032 98.1982 425.416 96.9395L426.132 94.6276L426.234 48.0037H412.96C412.96 88.1028 412.909 91.4936 412.576 92.7523C412.371 93.5744 411.885 94.8588 411.502 95.578C411.144 96.323 410.223 97.5817 409.507 98.3523C408.765 99.123 407.486 100.125 406.668 100.587C405.824 101.024 404.468 101.589 403.624 101.82C402.524 102.154 401.527 102.231 400.043 102.154C398.918 102.077 397.357 101.795 396.59 101.512C395.823 101.255 394.621 100.613 393.904 100.125C393.214 99.6367 392.14 98.7377 391.526 98.0955C390.912 97.4533 390.093 96.2459 389.684 95.3982C389.275 94.5505 388.84 93.3432 388.687 92.701C388.508 91.956 388.405 83.9156 388.405 69.7615V48.0037H374.824L374.926 70.6606Z" fill="#323232"/>
<path d="M497.877 114.51V47.978H511.433V114.51H497.877Z" fill="#323232"/>
<path d="M530.616 114.51H543.661L543.789 76.0294C575.198 105.853 584.38 114.433 584.457 114.33C584.534 114.228 584.585 99.2514 584.585 81.0643V47.978H571.029L570.901 85.0459C540.975 57.4826 531.895 49.1083 531.435 48.6716L530.616 47.8496V114.51Z" fill="#323232"/>
<path d="M596.606 114.536V48.0037H640.855V61.3615H609.906L610.034 73.5633H635.484V87.0496H609.906V101.435H640.599V114.536H596.606Z" fill="#323232"/>
<path fill-rule="evenodd" clip-rule="evenodd" d="M323.438 114.793C347.046 114.793 347.993 114.767 350.039 114.253C351.241 113.971 353.006 113.354 354.004 112.866C354.975 112.404 356.638 111.351 357.687 110.503C358.735 109.681 360.091 108.371 360.73 107.6C361.344 106.829 362.239 105.494 362.7 104.646C363.186 103.798 363.851 102.231 364.209 101.178C364.567 100.125 365.002 98.3267 365.155 97.1964C365.309 96.0661 365.36 94.3193 365.258 93.3432C365.181 92.367 364.925 90.8 364.695 89.8753C364.465 88.9505 363.902 87.3322 363.416 86.2789C362.93 85.2257 362.035 83.6588 361.447 82.811C360.833 81.9633 359.733 80.7303 358.966 80.0367L357.584 78.8294C358.301 77.7248 358.787 76.7743 359.145 76.0037C359.503 75.2331 360.014 73.7175 360.296 72.6642C360.628 71.3542 360.782 69.8642 360.782 68.0404C360.782 66.2936 360.603 64.6239 360.296 63.2881C360.014 62.1578 359.528 60.5908 359.17 59.8202C358.838 59.0496 358.07 57.6624 357.457 56.7376C356.843 55.8129 355.64 54.4 354.771 53.5523C353.927 52.7303 352.367 51.5486 351.318 50.9064C350.269 50.2899 348.479 49.4679 347.353 49.0826L345.307 48.389L323.464 48.2349L323.438 114.793ZM335.204 59.5121V67.0901L335.178 74.5911C342.187 74.5911 342.621 74.5397 343.875 73.9489C344.693 73.5635 345.742 72.7672 346.433 72.0222C347.123 71.2773 347.814 70.1984 348.07 69.4534C348.3 68.7599 348.504 67.6553 348.504 67.0131C348.504 66.3709 348.3 65.292 348.07 64.5727C347.814 63.8277 347.123 62.7488 346.433 62.0039C345.768 61.2846 344.719 60.4883 344.003 60.1543C342.928 59.692 342.161 59.5892 338.964 59.5121C336.892 59.4608 335.204 59.4608 335.204 59.5121ZM335.434 103.362C345.333 103.362 346.56 103.285 347.609 102.925C348.351 102.668 349.451 101.975 350.244 101.255C351.036 100.536 351.881 99.4828 352.239 98.7379C352.571 98.0443 352.904 96.8883 353.006 96.1691C353.108 95.27 353.032 94.4223 352.725 93.3434C352.494 92.4957 351.957 91.314 351.548 90.7232C351.139 90.1067 350.32 89.259 349.706 88.8223C349.118 88.4113 348.044 87.8718 347.353 87.6663C346.407 87.4094 344.668 87.3067 340.703 87.3067H335.332L335.434 103.362Z" fill="#323232"/>
<path d="M347.328 130.848C348.607 130.462 350.551 130 351.676 129.82C352.801 129.64 355.334 129.461 357.303 129.435C359.554 129.435 361.805 129.563 363.314 129.82C364.669 130.051 366.664 130.54 367.79 130.899C368.915 131.233 370.885 132.029 372.138 132.62C373.417 133.211 375.207 134.187 376.102 134.804C377.022 135.42 378.018 136.112 378.352 136.344L378.353 136.345L378.353 136.345C378.914 136.729 378.891 136.756 375.354 140.916L375.31 140.969C375.098 141.217 374.887 141.464 374.678 141.709L374.677 141.71C372.911 143.78 371.249 145.729 370.22 146.877L368.89 146.107C368.148 145.695 366.46 144.976 365.104 144.54C362.828 143.769 362.444 143.718 358.838 143.692C355.922 143.692 354.617 143.795 353.339 144.154C352.443 144.385 350.985 144.873 350.141 145.233C349.297 145.567 347.993 146.235 347.2 146.697C346.433 147.16 344.77 148.573 343.491 149.831C342.238 151.116 340.831 152.785 340.371 153.556C339.91 154.352 339.194 155.971 338.785 157.152C338.35 158.36 337.89 160.44 337.736 161.776C337.506 163.574 337.506 164.885 337.711 166.657C337.864 168.018 338.222 169.919 338.529 170.896C338.836 171.897 339.501 173.516 340.013 174.492C340.524 175.468 341.573 177.035 342.366 177.96C343.133 178.885 344.463 180.195 345.307 180.862C346.151 181.53 347.584 182.481 348.479 182.969C349.4 183.457 351.19 184.151 352.443 184.536C354.413 185.127 355.231 185.229 357.942 185.255C360.27 185.255 361.651 185.152 362.93 184.793C363.928 184.536 365.718 183.868 366.895 183.329C368.097 182.763 369.452 181.993 369.938 181.607C370.45 181.196 370.859 181.017 370.961 181.171C371.075 181.307 372.552 183.035 374.399 185.196L374.402 185.199L375.131 186.051C377.305 188.595 379.172 190.829 379.249 191.009C379.376 191.215 378.609 191.883 376.947 192.987C375.565 193.886 373.366 195.145 372.01 195.787C370.68 196.429 368.557 197.251 367.278 197.611C366.025 197.971 363.902 198.459 362.546 198.69C360.73 198.998 359.093 199.05 356.024 198.947C353.773 198.87 351.19 198.639 350.269 198.407C349.374 198.202 347.635 197.74 346.433 197.354C345.256 196.969 343.338 196.224 342.212 195.685C341.087 195.171 339.092 193.989 337.736 193.09C336.406 192.191 334.334 190.47 333.107 189.263C331.905 188.081 330.191 186.103 329.321 184.896C328.426 183.714 327.045 181.325 326.226 179.629C325.382 177.934 324.41 175.519 324.052 174.235C323.694 172.976 323.234 170.844 323.004 169.483C322.697 167.685 322.646 165.989 322.748 162.804C322.85 159.413 323.004 158.051 323.541 155.868C323.924 154.404 324.641 152.195 325.127 150.987C325.613 149.806 326.457 148.059 326.968 147.134C327.48 146.235 328.4 144.771 329.014 143.923C329.654 143.075 330.702 141.765 331.367 140.969C332.032 140.198 333.49 138.811 334.59 137.886C335.69 136.936 337.353 135.677 338.248 135.061C339.169 134.444 341.061 133.391 342.468 132.723C343.875 132.055 346.075 131.207 347.328 130.848Z" fill="#323232"/>
<path fill-rule="evenodd" clip-rule="evenodd" d="M483.937 141.534C480.714 147.648 477.645 153.479 477.134 154.455C476.86 154.991 475.775 157.053 474.282 159.893C472.981 162.366 471.371 165.427 469.716 168.584L468.443 171.011C465.411 176.796 462.834 181.71 462.452 182.455C462.197 182.925 461.713 183.846 461.154 184.91C460.705 185.765 460.208 186.712 459.741 187.593C458.718 189.571 457.081 192.705 456.109 194.529C455.163 196.378 454.37 197.971 454.37 198.074C454.37 198.176 457.746 198.228 461.838 198.202L469.307 198.125L475.573 185.795L503.351 185.666C504.006 187.044 504.587 188.283 505.106 189.391C505.681 190.618 506.181 191.684 506.624 192.602C507.443 194.374 508.364 196.352 508.671 196.969L509.233 198.125C520.641 198.228 523.94 198.202 523.94 198.125C523.94 198.074 516.344 182.892 507.034 164.422C497.723 145.952 490.05 130.745 489.948 130.617C489.871 130.514 487.16 135.42 483.937 141.534ZM482.53 171.666C482.53 171.615 484.167 168.301 486.162 164.32C488.157 160.338 489.871 157.204 489.948 157.333C490.05 157.461 490.536 158.463 491.022 159.593L491.132 159.836L491.133 159.839C491.653 160.987 492.442 162.732 492.966 163.832C493.346 164.647 493.948 165.944 494.52 167.175C494.794 167.765 495.061 168.341 495.294 168.841C496.01 170.408 496.598 171.718 496.598 171.744C496.598 171.769 493.426 171.795 489.564 171.795C485.702 171.795 482.53 171.744 482.53 171.666Z" fill="#323232"/>
<path d="M393.751 198.253V130.694H407.563L407.537 156.51L432.117 156.639V130.694H445.418V198.253H432.117V169.996H407.435V198.125L393.751 198.253Z" fill="#323232"/>
<path d="M530.591 198.253H543.891L544.019 159.002C575.735 189.185 585.045 197.894 585.147 197.842C585.25 197.791 585.326 182.661 585.326 164.217V130.694H571.515L571.387 168.018C541.256 140.455 532.074 132.029 531.563 131.516L530.591 130.565V198.253Z" fill="#323232"/>
<path d="M638.604 167.813C638.707 167.762 638.783 159.387 638.783 149.215V130.719H652.084L652.109 198.151L651.419 197.508C651.035 197.149 641.853 188.389 631.008 178.037C620.163 167.685 611.236 159.207 611.16 159.207C611.083 159.233 611.032 167.993 611.032 198.151H597.732L597.68 164.551C597.629 142.305 597.706 130.976 597.859 130.976C598.013 130.976 607.195 139.299 618.27 149.446C629.345 159.618 638.502 167.864 638.604 167.813Z" fill="#323232"/>
<path d="M664.617 198.151L708.866 198.279V184.407H677.917V170.022H704.006V156.664H677.917V144.077H709.377V130.719H664.489L664.617 198.151Z" fill="#323232"/>
<path d="M719.89 197.868L719.762 130.694H733.19V184.382H758V197.996L719.89 197.868Z" fill="#323232"/>
</svg>
