<svg width="129" height="111" viewBox="0 0 129 111" fill="none" xmlns="http://www.w3.org/2000/svg">
<path opacity="0.2" d="M4.79237 107.781C2.69365 104.969 3.05754 101.044 5.49615 98.5202C19.529 83.9976 26.9377 69.0676 27.7221 53.7304C26.8596 53.7304 26.2436 53.7304 25.8739 53.7304C21.4384 53.7304 17.2493 52.6841 13.3066 50.5915C4.43553 45.6678 0 38.159 0 28.0654C0 23.1416 1.23209 18.5871 3.69627 14.402C8.99427 4.80065 16.9413 0 27.5372 0C35.5458 0 42.2607 2.76961 47.6819 8.30882C53.9656 14.4635 57.1074 22.6492 57.1074 32.866C57.1074 45.7908 53.596 58.9619 46.5731 72.3791C39.2091 86.5442 28.3644 98.8482 14.0391 109.291C11.0847 111.445 6.97877 110.712 4.79237 107.781ZM76.6849 107.781C74.5862 104.969 74.9501 101.044 77.3887 98.5202C91.4216 83.9976 98.8302 69.0676 99.6146 53.7304C98.7521 53.7304 98.1361 53.7304 97.7665 53.7304C93.3309 53.7304 89.1418 52.6841 85.1991 50.5915C76.3281 45.6678 71.8925 38.159 71.8925 28.0654C71.8925 23.1416 73.1246 18.5871 75.5888 14.402C80.8868 4.80065 88.8338 0 99.4298 0C107.438 0 114.153 2.76961 119.574 8.30882C125.858 14.4635 129 22.6492 129 32.866C129 45.7908 125.489 58.9619 118.466 72.3791C111.102 86.5442 100.257 98.8482 85.9316 109.291C82.9773 111.445 78.8713 110.712 76.6849 107.781Z" fill="white"/>
</svg>
