<svg width="129" height="111" viewBox="0 0 129 111" fill="none" xmlns="http://www.w3.org/2000/svg">
<path opacity="0.2" d="M124.208 3.2186C126.306 6.03132 125.942 9.95603 123.504 12.4798C109.471 27.0024 102.062 41.9324 101.278 57.2696C102.14 57.2696 102.756 57.2696 103.126 57.2696C107.562 57.2696 111.751 58.3159 115.693 60.4085C124.564 65.3322 129 72.841 129 82.9346C129 87.8584 127.768 92.4129 125.304 96.598C120.006 106.199 112.059 111 101.463 111C93.4542 111 86.7393 108.23 81.318 102.691C75.0344 96.5365 71.8925 88.3508 71.8925 78.134C71.8925 65.2091 75.404 52.0381 82.4269 38.6209C89.7909 24.4558 100.636 12.1518 114.961 1.70893C117.915 -0.444741 122.021 0.288368 124.208 3.2186ZM52.3151 3.21859C54.4138 6.03131 54.0499 9.95603 51.6113 12.4798C37.5784 27.0024 30.1698 41.9324 29.3854 57.2696C30.2478 57.2696 30.8639 57.2696 31.2335 57.2696C35.669 57.2696 39.8582 58.3159 43.8009 60.4085C52.6719 65.3322 57.1074 72.841 57.1074 82.9346C57.1074 87.8584 55.8754 92.4128 53.4112 96.598C48.1132 106.199 40.1662 111 29.5702 111C21.5616 111 14.8467 108.23 9.42548 102.691C3.14182 96.5365 -1.32787e-05 88.3508 -1.23856e-05 78.134C-1.12556e-05 65.2091 3.51145 52.0381 10.5344 38.6209C17.8984 24.4558 28.743 12.1518 43.0684 1.70892C46.0227 -0.444748 50.1287 0.288361 52.3151 3.21859Z" fill="white"/>
</svg>
