<svg width="30" height="35" viewBox="0 0 30 35" fill="none" xmlns="http://www.w3.org/2000/svg">
<path opacity="0.2" d="M15.608 15.368C16.152 14.952 16.6 14.488 16.952 13.976C17.304 13.464 17.48 12.936 17.48 12.392C17.48 11.752 17.272 11.192 16.856 10.712C16.472 10.232 15.848 9.992 14.984 9.992C14.056 9.992 13.288 10.36 12.68 11.096C12.072 11.832 11.736 12.824 11.672 14.072L0.776 12.824C1 10.616 1.576 8.712 2.504 7.112C3.432 5.512 4.584 4.184 5.96 3.128C7.368 2.072 8.92 1.304 10.616 0.823999C12.344 0.311998 14.12 0.0559978 15.944 0.0559978C17.608 0.0559978 19.256 0.263998 20.888 0.679998C22.552 1.096 24.024 1.752 25.304 2.648C26.584 3.512 27.624 4.648 28.424 6.056C29.224 7.464 29.624 9.16 29.624 11.144C29.624 12.552 29.432 13.8 29.048 14.888C28.696 15.944 28.2 16.888 27.56 17.72C26.952 18.552 26.248 19.304 25.448 19.976C24.68 20.648 23.864 21.288 23 21.896L18.008 25.448H29.72V35H2.168V26.12L15.608 15.368Z" fill="white"/>
</svg>
