<svg width="31" height="36" viewBox="0 0 31 36" fill="none" xmlns="http://www.w3.org/2000/svg">
<path opacity="0.2" d="M24.584 17.192C25.448 17.48 26.232 17.88 26.936 18.392C27.672 18.904 28.296 19.496 28.808 20.168C29.32 20.84 29.704 21.576 29.96 22.376C30.248 23.144 30.392 23.928 30.392 24.728C30.392 26.712 29.976 28.424 29.144 29.864C28.312 31.272 27.224 32.44 25.88 33.368C24.536 34.264 23.016 34.92 21.32 35.336C19.624 35.752 17.912 35.96 16.184 35.96C14.456 35.96 12.744 35.752 11.048 35.336C9.384 34.952 7.848 34.328 6.44 33.464C5.064 32.6 3.848 31.512 2.792 30.2C1.768 28.888 1.032 27.32 0.584 25.496L11.24 23C11.432 23.832 11.896 24.6 12.632 25.304C13.4 26.008 14.376 26.36 15.56 26.36C15.88 26.36 16.216 26.328 16.568 26.264C16.92 26.168 17.24 26.04 17.528 25.88C17.816 25.688 18.056 25.448 18.248 25.16C18.44 24.872 18.536 24.504 18.536 24.056C18.536 23.032 18.088 22.36 17.192 22.04C16.296 21.72 15.096 21.56 13.592 21.56H10.328V13.688H13.976C15.192 13.688 16.168 13.528 16.904 13.208C17.64 12.856 18.008 12.2 18.008 11.24C18.008 10.504 17.72 9.992 17.144 9.704C16.568 9.416 15.96 9.272 15.32 9.272C14.52 9.272 13.784 9.528 13.112 10.04C12.44 10.52 12.024 11.24 11.864 12.2L1.256 9.944C1.832 8.088 2.648 6.536 3.704 5.288C4.76 4.008 5.96 2.984 7.304 2.216C8.68 1.448 10.136 0.903999 11.672 0.584C13.24 0.231998 14.776 0.0559978 16.28 0.0559978C17.784 0.0559978 19.336 0.247998 20.936 0.631999C22.536 0.983998 23.992 1.576 25.304 2.408C26.616 3.208 27.688 4.248 28.52 5.528C29.352 6.776 29.768 8.296 29.768 10.088C29.768 12.008 29.256 13.544 28.232 14.696C27.24 15.816 26.024 16.584 24.584 17V17.192Z" fill="white"/>
</svg>
