<svg width="194" height="100" viewBox="0 0 194 100" fill="none" xmlns="http://www.w3.org/2000/svg">
<path d="M194 70.3753C194 75.3798 193.011 79.7587 191.033 83.5121C189.054 87.176 186.402 90.2592 183.075 92.7614C179.837 95.1743 176.016 96.9616 171.609 98.1233C167.293 99.3744 162.797 100 158.121 100C153.355 100 148.814 99.3744 144.498 98.1233C140.182 96.9616 136.36 95.1743 133.033 92.7614C129.796 90.3485 127.188 87.3101 125.21 83.6461C123.231 79.8928 122.242 75.5139 122.242 70.5094C122.242 67.6497 122.692 65.0134 123.591 62.6005C124.49 60.0983 125.704 57.9088 127.233 56.0322C128.852 54.0661 130.695 52.4129 132.763 51.0724C134.831 49.6425 137.034 48.5702 139.372 47.8552V47.5871C135.236 46.0679 131.774 43.6104 128.986 40.2145C126.199 36.7292 124.805 32.3503 124.805 27.0778C124.805 22.6988 125.704 18.8114 127.503 15.4156C129.301 12.0197 131.729 9.20465 134.786 6.97052C137.844 4.64701 141.396 2.90438 145.442 1.74263C149.489 0.580876 153.715 0 158.121 0C162.527 0 166.709 0.580876 170.665 1.74263C174.712 2.81502 178.264 4.46828 181.321 6.70241C184.378 8.93656 186.806 11.7516 188.605 15.1475C190.493 18.454 191.437 22.2967 191.437 26.6756C191.437 31.9482 190.088 36.3718 187.391 39.9464C184.693 43.521 181.186 46.0232 176.87 47.4531V47.8552C179.298 48.5702 181.546 49.6425 183.614 51.0724C185.682 52.4129 187.481 54.0661 189.009 56.0322C190.538 57.9088 191.752 60.0983 192.651 62.6005C193.55 65.0134 194 67.605 194 70.3753ZM169.586 28.2842C169.586 25.1564 168.462 22.5648 166.214 20.5094C163.966 18.454 161.268 17.4263 158.121 17.4263C154.704 17.4263 151.961 18.454 149.893 20.5094C147.825 22.5648 146.791 25.1564 146.791 28.2842C146.791 31.3226 147.78 33.9589 149.758 36.193C151.827 38.4272 154.614 39.5442 158.121 39.5442C161.448 39.5442 164.191 38.4272 166.349 36.193C168.507 33.9589 169.586 31.3226 169.586 28.2842ZM171.34 69.5711C171.34 65.9071 170.081 62.8686 167.563 60.4558C165.135 57.9535 161.988 56.7024 158.121 56.7024C154.165 56.7024 150.927 57.9089 148.41 60.3217C145.982 62.7346 144.768 65.8177 144.768 69.5711C144.768 73.4138 145.982 76.4969 148.41 78.8204C150.927 81.0545 154.165 82.1716 158.121 82.1716C162.078 82.1716 165.27 81.0545 167.698 78.8204C170.126 76.4969 171.34 73.4138 171.34 69.5711Z" fill="#D91312"/>
<path d="M110.668 85.6567C110.668 89.4101 109.319 92.5379 106.622 95.0401C104.014 97.5424 100.866 98.7935 97.1797 98.7935C95.2913 98.7935 93.4929 98.436 91.7844 97.7211C90.1658 97.0955 88.727 96.2019 87.4681 95.0401C86.2092 93.8784 85.2201 92.5379 84.5007 91.0187C83.7813 89.4101 83.4216 87.6675 83.4216 85.7908C83.4216 84.0035 83.7813 82.3055 84.5007 80.697C85.2201 79.0884 86.2092 77.7032 87.4681 76.5415C88.727 75.2903 90.1658 74.3073 91.7844 73.5924C93.4929 72.8775 95.2913 72.52 97.1797 72.52C100.866 72.52 104.014 73.7711 106.622 76.2734C109.319 78.7756 110.668 81.9034 110.668 85.6567Z" fill="#D91312"/>
<path d="M71.7578 70.3753C71.7578 75.3798 70.7686 79.7587 68.7903 83.5121C66.812 87.176 64.1594 90.2592 60.8323 92.7614C57.5951 95.1743 53.7734 96.9616 49.3672 98.1233C45.0509 99.3744 40.5548 100 35.8789 100C31.113 100 26.572 99.3744 22.2557 98.1233C17.9394 96.9616 14.1177 95.1743 10.7906 92.7614C7.55343 90.3485 4.94566 87.3101 2.96738 83.6461C0.989091 79.8928 0 75.5139 0 70.5094C0 67.6497 0.449556 65.0134 1.34878 62.6005C2.248 60.0983 3.462 57.9088 4.99068 56.0322C6.60928 54.0661 8.45266 52.4129 10.5209 51.0724C12.5891 49.6425 14.7922 48.5702 17.1301 47.8552V47.5871C12.9937 46.0679 9.53174 43.6104 6.74416 40.2145C3.95657 36.7292 2.56274 32.3503 2.56274 27.0778C2.56274 22.6988 3.46199 18.8114 5.26043 15.4156C7.05888 12.0197 9.48675 9.20465 12.5441 6.97052C15.6015 4.64701 19.1534 2.90438 23.1998 1.74263C27.2463 0.580876 31.4727 0 35.8789 0C40.2851 0 44.4664 0.580876 48.423 1.74263C52.4695 2.81502 56.0215 4.46828 59.0788 6.70241C62.1362 8.93656 64.564 11.7516 66.3625 15.1475C68.2508 18.454 69.195 22.2967 69.195 26.6756C69.195 31.9482 67.8462 36.3718 65.1485 39.9464C62.4508 43.521 58.9439 46.0232 54.6276 47.4531V47.8552C57.0555 48.5702 59.3036 49.6425 61.3718 51.0724C63.44 52.4129 65.2384 54.0661 66.7671 56.0322C68.2958 57.9088 69.5097 60.0983 70.4089 62.6005C71.3082 65.0134 71.7578 67.605 71.7578 70.3753ZM47.344 28.2842C47.344 25.1564 46.2199 22.5648 43.9719 20.5094C41.7238 18.454 39.0262 17.4263 35.8789 17.4263C32.4619 17.4263 29.7192 18.454 27.651 20.5094C25.5828 22.5648 24.5487 25.1564 24.5487 28.2842C24.5487 31.3226 25.5378 33.9589 27.5161 36.193C29.5843 38.4272 32.3719 39.5442 35.8789 39.5442C39.206 39.5442 41.9486 38.4272 44.1068 36.193C46.2649 33.9589 47.344 31.3226 47.344 28.2842ZM49.0975 69.5711C49.0975 65.9071 47.8385 62.8686 45.3207 60.4558C42.8928 57.9535 39.7455 56.7024 35.8789 56.7024C31.9223 56.7024 28.6851 57.9089 26.1673 60.3217C23.7394 62.7346 22.5255 65.8177 22.5255 69.5711C22.5255 73.4138 23.7394 76.4969 26.1673 78.8204C28.6851 81.0545 31.9223 82.1716 35.8789 82.1716C39.8355 82.1716 43.0277 81.0545 45.4556 78.8204C47.8835 76.4969 49.0975 73.4138 49.0975 69.5711Z" fill="#D91312"/>
</svg>
